<?xml version="1.0" encoding="utf-8"?>
<!-- Generator: Adobe Illustrator 27.5.0, SVG Export Plug-In . SVG Version: 6.00 Build 0)  -->
<svg version="1.1" id="Layer_1" xmlns="http://www.w3.org/2000/svg" xmlns:xlink="http://www.w3.org/1999/xlink" x="0px" y="0px"
	 viewBox="0 0 264.7 110.78" style="enable-background:new 0 0 264.7 110.78;" xml:space="preserve">
<style type="text/css">
	.st0{clip-path:url(#SVGID_00000065784158763144589840000001555049264688277891_);fill:#647378;}
	.st1{clip-path:url(#SVGID_00000065784158763144589840000001555049264688277891_);fill:#D5BA78;}
	.st2{clip-path:url(#SVGID_00000065784158763144589840000001555049264688277891_);fill:#96853B;}
	.st3{clip-path:url(#SVGID_00000065784158763144589840000001555049264688277891_);fill:#959FA4;}
	.st4{clip-path:url(#SVGID_00000065784158763144589840000001555049264688277891_);fill:#409757;}
	.st5{clip-path:url(#SVGID_00000065784158763144589840000001555049264688277891_);fill:#007030;}
	.st6{clip-path:url(#SVGID_00000065784158763144589840000001555049264688277891_);fill:#921913;}
	.st7{clip-path:url(#SVGID_00000065784158763144589840000001555049264688277891_);fill:#CA3C42;}
	.st8{clip-path:url(#SVGID_00000065784158763144589840000001555049264688277891_);fill:#B2BEC4;}
</style>
<g>
	<defs>
		<rect id="SVGID_1_" x="-4.24" y="-6.44" width="264.7" height="110.78"/>
	</defs>
	<clipPath id="SVGID_00000118364429032739558360000008511217525953989048_">
		<use xlink:href="#SVGID_1_"  style="overflow:visible;"/>
	</clipPath>
	<path style="clip-path:url(#SVGID_00000118364429032739558360000008511217525953989048_);fill:#647378;" d="M24.74,56.65
		c-2.54,0.66-3.52,0.89-4.61,0.89c-1.97,0-3.57-0.47-4.64-1.37c-0.17-0.15-0.32-0.33-0.43-0.53c-0.39-0.69-0.24-1.63,0.36-2.28
		c0.06-0.07,0.12-0.13,0.15-0.17c2.01-0.6,4.44-1.03,6.83-1.22l0.07,0l0.47-2.19l-0.14,0.01c-1.62,0.19-3.11,0.45-4.4,0.76
		c-2-0.37-3.49-2.01-3.7-4.03c0.79-1.51,2.44-2.56,4.02-2.56c0.81,0,1.55,0.19,2.94,0.75l0.08,0.03l0.45-0.82l-0.08-0.05
		c-0.52-0.33-0.91-0.63-1.3-0.92c-0.51-0.38-0.99-0.74-1.74-1.15c-2.84,0-5.89,2.19-5.89,5.46c0,1.61,0.98,3.29,2.45,4.23
		c-0.14,0.08-0.61,0.35-0.61,0.35c-0.3,0.19-0.57,0.51-0.82,0.96c-0.89,1.64-0.79,3.57,0.26,4.93c0.63,0.82,1.49,1.39,2.49,1.64
		c0.94,0.24,2,0.36,3.14,0.36h0.02l0.02-0.01c0.89-0.39,1.65-0.74,2.39-1.08c0.82-0.38,1.61-0.74,2.54-1.14l0.09-0.04l-0.33-0.87
		L24.74,56.65z M73.22,41.55c-2.89,0-4.73,4.21-4.73,6.42c0,1.8,2,3.08,6.51,4.13H29.23c-0.06-5.23-0.19-8.06-0.43-13.17l-0.1-2.12
		h-2.25l0.01,0.11c0.64,7.15,0.89,11.74,1.09,17.23l0,0.1h49.61l0.02-0.08c0.09-0.47,0.38-3.58,0.38-4.35
		C77.56,44.65,75.94,41.55,73.22,41.55 M75.87,50.37c-2.76-0.57-4.09-1.14-5.86-2.42c0.2-2.31,1.58-4.34,2.94-4.34
		c1.72,0,2.91,2.71,2.91,6.59V50.37z M74.87,38.48l-1.73-1.65l-1.83,1.9l1.87,1.69L74.87,38.48z M148.86,40.06l-1.73-1.66l-1.83,1.9
		l1.87,1.69L148.86,40.06z M127.35,40.09l-1.73-1.69l-1.83,1.9l1.87,1.69L127.35,40.09z M123.41,40.06l-1.73-1.65l-1.83,1.9
		l1.87,1.69L123.41,40.06z M134.39,43.46l-2.1,1.19l0.04,0.09c1.46,2.84,2.34,5.15,2.87,7.44c-0.8,2.56-2.51,4.59-4.48,5.3
		c-0.88,0.39-2.26,0.65-3.7,0.69l-0.09,0l-0.04,0.91l4.89,0.65c3.01-2.29,4.74-5.27,4.74-8.18c0-1.81-0.65-4.27-2.09-7.98
		L134.39,43.46z M142.47,54.25c-0.16-7.19-0.29-10.49-0.59-17.34l0-0.09h-2.25l0.01,0.11c0.52,6.67,0.72,10.57,1.01,15.98l0.07,1.34
		H142.47z M148.74,43.46l-2.1,1.19l0.04,0.09c1.45,2.84,2.34,5.15,2.87,7.44c-0.8,2.56-2.51,4.59-4.48,5.3
		c-0.88,0.39-2.26,0.65-3.7,0.69l-0.09,0l-0.04,0.91l4.89,0.65c3.01-2.29,4.74-5.27,4.74-8.18c0-1.81-0.64-4.27-2.09-7.98
		L148.74,43.46z M158.22,43.11c-2.72,0-4.76,3.83-4.76,6.32c0,2.13,2.32,3.54,7.1,4.31c-0.76,1.73-2.12,3.15-3.67,3.8
		c-0.85,0.38-2.16,0.59-3.9,0.62l-0.09,0l-0.08,0.91l4.9,0.65c3.12-2.32,4.84-5.41,4.84-8.71
		C162.56,46.21,160.85,43.11,158.22,43.11 M154.98,49.41c0.26-2.26,1.66-4.25,2.98-4.25c1.66,0,2.8,2.48,3.07,6.64
		C157.96,51.35,156.08,50.59,154.98,49.41 M102.21,36.91l0-0.09h-2.25l0.01,0.11c0.47,6.13,0.68,9.84,0.97,15.18H90.84
		c-0.96,0-1.66-0.52-2.26-1.7c-0.9-1.69-1.47-4.18-1.81-7.84l-0.01-0.14l-1.95,0.85l0.01,0.07c0.52,3.68,1.42,6.71,2.53,8.54
		c0.07,0.11,0.13,0.21,0.21,0.31c-1.13,0.2-2.22,0.24-3.5,0.24c-1.53,0-2.87-0.14-4.35-0.46l-0.1-0.02L79.25,54l0.09,0.02
		c1.48,0.36,3.12,0.57,4.52,0.57c1.44,0,2.96-0.04,4.36-0.33l0.06-0.01l0.24-0.92c0.68,0.61,1.42,0.92,2.16,0.92l0.07,0.02l12.05,0
		l0-0.1C102.64,46.89,102.51,43.81,102.21,36.91 M129.04,51.87c0.01-1.29-2.13-5.78-3.88-8.48c-0.44,0.21-1.19,0.78-1.65,1.15
		c-2.46,1.97-4.17,4.58-4.17,6.37c0,2.03,2.12,3.67,4.73,3.67c1.6,0,3.15-0.4,4.29-1.15L129.04,51.87z M124.24,52.5
		c-1.38,0-2.64-0.6-3.35-1.53c0.65-1.94,1.97-3.74,3.62-4.95c1.16,1.83,1.95,3.49,2.72,5.71C126.31,52.3,125.09,52.5,124.24,52.5
		 M108.49,54.25c-0.16-7.19-0.29-10.49-0.59-17.34l0-0.09h-2.25l0.01,0.11c0.52,6.67,0.72,10.57,1.01,15.98l0.07,1.34H108.49z"/>
	<polygon style="clip-path:url(#SVGID_00000118364429032739558360000008511217525953989048_);fill:#647378;" points="18.49,68.59 
		15.03,63.72 13.19,63.72 13.82,64.59 13.82,73.62 15.07,73.62 15.07,66.35 18.25,70.8 21.56,66.36 21.56,73.62 23.06,73.62 
		23.06,63.72 22.21,63.72 	"/>
	<polygon style="clip-path:url(#SVGID_00000118364429032739558360000008511217525953989048_);fill:#647378;" points="73.52,68.03 
		71.27,63.8 71.23,63.72 69.55,63.72 72.58,69.45 72.58,73.62 74.08,73.62 74.08,69.55 77.32,63.72 75.91,63.72 	"/>
	<path style="clip-path:url(#SVGID_00000118364429032739558360000008511217525953989048_);fill:#647378;" d="M66.71,68.82
		c0.23-0.16,0.45-0.35,0.65-0.58c0.2-0.23,0.37-0.5,0.51-0.81c0.14-0.31,0.21-0.66,0.21-1.05c0-0.47-0.09-0.89-0.27-1.24
		c-0.18-0.35-0.43-0.64-0.74-0.87c-0.31-0.23-0.69-0.41-1.11-0.52c-0.42-0.12-0.89-0.18-1.4-0.18c-0.62,0-1.14,0.03-1.54,0.09
		c-0.36,0.05-0.73,0.12-1.09,0.19l-0.12,0.02v9.75h1.5v-4.02l1.44,0.02l2.87,4h1.88l-3.39-4.47C66.28,69.08,66.48,68.97,66.71,68.82
		 M66.44,67.23c-0.08,0.21-0.2,0.41-0.33,0.58c-0.13,0.17-0.27,0.31-0.42,0.43c-0.12,0.09-0.25,0.19-0.45,0.28H63.3v-3.83h0.85
		c0.82,0,1.44,0.15,1.83,0.43c0.39,0.29,0.59,0.75,0.59,1.39C66.57,66.78,66.53,67.02,66.44,67.23"/>
	
		<rect x="26.2" y="63.72" style="clip-path:url(#SVGID_00000118364429032739558360000008511217525953989048_);fill:#647378;" width="1.5" height="9.91"/>
	
		<rect x="41.67" y="63.72" style="clip-path:url(#SVGID_00000118364429032739558360000008511217525953989048_);fill:#647378;" width="1.5" height="9.91"/>
	<polygon style="clip-path:url(#SVGID_00000118364429032739558360000008511217525953989048_);fill:#647378;" points="37.27,70.52 
		31.83,63.72 29.96,63.72 30.95,64.96 30.95,73.62 32.21,73.62 32.21,66.55 37.84,73.62 38.54,73.62 38.54,63.72 37.27,63.72 	"/>
	<polygon style="clip-path:url(#SVGID_00000118364429032739558360000008511217525953989048_);fill:#647378;" points="52.76,64.94 
		55.7,64.94 55.7,73.62 57.2,73.62 57.2,64.94 59.89,64.94 60.36,63.72 52.76,63.72 	"/>
	<path style="clip-path:url(#SVGID_00000118364429032739558360000008511217525953989048_);fill:#647378;" d="M50.96,69.46
		L50.96,69.46c-0.18-0.2-0.37-0.38-0.57-0.53c-0.2-0.15-0.4-0.29-0.58-0.4l-0.91-0.57c-0.2-0.11-0.38-0.22-0.55-0.34
		c-0.17-0.11-0.33-0.23-0.47-0.37c-0.14-0.14-0.25-0.28-0.33-0.43c-0.08-0.15-0.12-0.33-0.12-0.53c0-0.24,0.05-0.46,0.15-0.65
		c0.1-0.19,0.24-0.35,0.41-0.47c0.17-0.12,0.37-0.21,0.59-0.28c0.22-0.06,0.45-0.09,0.7-0.09c0.46,0,0.87,0.1,1.22,0.28
		c0.25,0.13,0.47,0.29,0.67,0.46l0.25,0.22V64.2l-0.07-0.04c-0.08-0.05-0.18-0.1-0.3-0.16c-0.16-0.07-0.33-0.14-0.52-0.2
		c-0.19-0.06-0.39-0.11-0.61-0.15c-0.72-0.14-1.4-0.05-1.98,0.14c-0.41,0.13-0.76,0.33-1.05,0.58c-0.29,0.25-0.52,0.56-0.68,0.91
		c-0.16,0.35-0.24,0.75-0.24,1.18c0,0.48,0.15,0.94,0.43,1.35c0.29,0.42,0.76,0.83,1.4,1.23l1.29,0.78
		c0.14,0.08,0.29,0.19,0.44,0.32c0.14,0.12,0.26,0.27,0.37,0.44c0.1,0.16,0.15,0.35,0.15,0.56c0,0.22-0.05,0.43-0.15,0.6
		c-0.1,0.18-0.23,0.33-0.39,0.46c-0.16,0.13-0.35,0.23-0.56,0.3c-0.21,0.07-0.43,0.11-0.65,0.11c-0.53,0-1-0.09-1.4-0.27
		c-0.3-0.14-0.59-0.3-0.87-0.49l-0.27-0.19l0.22,1.71l0.08,0.03c0.33,0.12,0.68,0.22,1.05,0.3c0.4,0.09,0.83,0.13,1.28,0.13
		c0.45,0,0.88-0.07,1.27-0.2c0.39-0.13,0.73-0.33,1.01-0.57c0.28-0.24,0.5-0.55,0.67-0.9c0.16-0.35,0.24-0.74,0.24-1.16
		c0-0.31-0.06-0.6-0.17-0.85C51.28,69.89,51.14,69.66,50.96,69.46"/>
	<path style="clip-path:url(#SVGID_00000118364429032739558360000008511217525953989048_);fill:#647378;" d="M153.69,69.46
		c-0.17-0.2-0.37-0.38-0.57-0.53c-0.2-0.15-0.4-0.29-0.59-0.4l-0.91-0.57c-0.2-0.11-0.38-0.22-0.55-0.34
		c-0.17-0.11-0.33-0.23-0.47-0.37c-0.14-0.13-0.25-0.28-0.33-0.43c-0.08-0.15-0.12-0.33-0.12-0.53c0-0.24,0.05-0.46,0.15-0.65
		c0.1-0.19,0.24-0.35,0.41-0.47c0.17-0.12,0.37-0.21,0.59-0.28c0.22-0.06,0.45-0.09,0.7-0.09c0.46,0,0.87,0.1,1.22,0.28
		c0.25,0.13,0.47,0.29,0.67,0.46l0.25,0.22V64.2l-0.07-0.04c-0.08-0.05-0.18-0.1-0.3-0.16c-0.16-0.07-0.33-0.14-0.53-0.2
		c-0.19-0.06-0.39-0.11-0.61-0.15c-0.72-0.14-1.4-0.05-1.98,0.14c-0.41,0.13-0.76,0.33-1.05,0.58c-0.3,0.25-0.52,0.56-0.68,0.91
		c-0.16,0.35-0.24,0.75-0.24,1.18c0,0.48,0.15,0.94,0.43,1.35c0.29,0.42,0.76,0.83,1.4,1.23l1.29,0.78
		c0.15,0.08,0.29,0.19,0.44,0.32c0.14,0.13,0.27,0.27,0.37,0.44c0.1,0.16,0.15,0.35,0.15,0.56c0,0.22-0.05,0.43-0.14,0.6
		c-0.1,0.18-0.23,0.33-0.39,0.46c-0.16,0.13-0.35,0.23-0.56,0.3c-0.21,0.07-0.43,0.11-0.65,0.11c-0.53,0-1-0.09-1.4-0.27
		c-0.3-0.14-0.59-0.3-0.87-0.49l-0.27-0.19l0.22,1.71l0.08,0.03c0.33,0.12,0.68,0.22,1.05,0.3c0.4,0.09,0.83,0.13,1.28,0.13
		c0.45,0,0.88-0.07,1.27-0.2c0.39-0.13,0.73-0.33,1.01-0.57c0.28-0.25,0.51-0.55,0.66-0.9c0.16-0.35,0.24-0.74,0.24-1.16
		c0-0.31-0.06-0.6-0.17-0.85C154.01,69.89,153.87,69.66,153.69,69.46"/>
	<polygon style="clip-path:url(#SVGID_00000118364429032739558360000008511217525953989048_);fill:#647378;" points="131.64,69.17 
		134.42,69.17 134.88,68.01 131.64,68.01 131.64,64.88 135.07,64.88 135.54,63.72 130.14,63.72 130.14,73.63 135.19,73.63 
		135.82,72.42 131.64,72.42 	"/>
	<polygon style="clip-path:url(#SVGID_00000118364429032739558360000008511217525953989048_);fill:#647378;" points="122.73,73.62 
		124.24,73.62 124.24,69.39 127.09,69.39 127.57,68.23 124.24,68.23 124.24,64.88 127.76,64.88 128.23,63.72 122.73,63.72 	"/>
	<path style="clip-path:url(#SVGID_00000118364429032739558360000008511217525953989048_);fill:#647378;" d="M89.86,64.99
		c-0.43-0.46-0.95-0.81-1.54-1.07c-0.6-0.25-1.25-0.38-1.96-0.38c-0.71,0-1.36,0.13-1.96,0.38c-0.59,0.25-1.11,0.61-1.54,1.07
		c-0.43,0.46-0.77,1.01-1.01,1.63c-0.24,0.62-0.36,1.32-0.36,2.07c0,0.76,0.12,1.46,0.36,2.08c0.24,0.62,0.58,1.17,1.01,1.62
		c0.43,0.45,0.95,0.81,1.54,1.06c0.59,0.25,1.25,0.38,1.96,0.38c0.71,0,1.37-0.13,1.96-0.38c0.59-0.25,1.11-0.61,1.54-1.07
		c0.43-0.45,0.77-1,1.01-1.63c0.24-0.62,0.36-1.32,0.36-2.07c0-0.75-0.12-1.44-0.36-2.07C90.63,65.99,90.29,65.44,89.86,64.99
		 M89.64,68.69c0,0.57-0.08,1.1-0.22,1.58c-0.15,0.47-0.36,0.89-0.64,1.23c-0.27,0.34-0.62,0.61-1.03,0.8
		c-0.41,0.19-0.88,0.29-1.4,0.29c-0.52,0-0.99-0.1-1.4-0.29c-0.41-0.19-0.76-0.46-1.04-0.8c-0.28-0.34-0.49-0.75-0.64-1.23
		c-0.14-0.47-0.21-1-0.21-1.58c0-0.56,0.07-1.09,0.22-1.57c0.15-0.48,0.36-0.89,0.64-1.24c0.28-0.34,0.62-0.61,1.03-0.8
		c0.41-0.19,0.88-0.29,1.4-0.29c0.52,0,0.99,0.1,1.4,0.29s0.75,0.46,1.03,0.8c0.28,0.34,0.49,0.76,0.64,1.24
		C89.57,67.6,89.64,68.13,89.64,68.69"/>
	<polygon style="clip-path:url(#SVGID_00000118364429032739558360000008511217525953989048_);fill:#647378;" points="158.38,72.42 
		158.38,69.17 161.16,69.17 161.61,68.01 158.38,68.01 158.38,64.88 161.81,64.88 162.28,63.72 156.87,63.72 156.87,73.62 
		161.93,73.62 162.56,72.42 	"/>
	<polygon style="clip-path:url(#SVGID_00000118364429032739558360000008511217525953989048_);fill:#647378;" points="144.62,70.52 
		139.18,63.72 137.31,63.72 138.3,64.96 138.3,73.62 139.56,73.62 139.56,66.55 145.19,73.62 145.89,73.62 145.89,63.72 
		144.62,63.72 	"/>
	<polygon style="clip-path:url(#SVGID_00000118364429032739558360000008511217525953989048_);fill:#647378;" points="116.21,69.17 
		119,69.17 119.45,68.01 116.21,68.01 116.21,64.88 119.64,64.88 120.11,63.72 114.71,63.72 114.71,73.63 119.76,73.63 
		120.39,72.42 116.21,72.42 	"/>
	<polygon style="clip-path:url(#SVGID_00000118364429032739558360000008511217525953989048_);fill:#647378;" points="93.45,73.62 
		94.95,73.62 94.95,69.39 97.81,69.39 98.28,68.23 94.95,68.23 94.95,64.88 98.47,64.88 98.94,63.72 93.45,63.72 	"/>
	<path style="clip-path:url(#SVGID_00000118364429032739558360000008511217525953989048_);fill:#647378;" d="M111.15,64.96
		c-0.44-0.45-0.98-0.79-1.61-1.03c-0.63-0.24-1.35-0.36-2.14-0.36c-0.63,0-1.19,0.03-1.67,0.09c-0.42,0.06-0.83,0.12-1.2,0.19
		l-0.12,0.02v9.55l0.11,0.03c0.34,0.09,0.75,0.17,1.21,0.25c0.5,0.08,1.06,0.12,1.65,0.12c0.77,0,1.48-0.12,2.11-0.37
		c0.63-0.24,1.17-0.6,1.61-1.05c0.44-0.45,0.79-0.99,1.03-1.61c0.24-0.62,0.36-1.32,0.36-2.08c0-0.79-0.12-1.51-0.35-2.14
		C111.92,65.95,111.59,65.41,111.15,64.96 M110.91,68.73c0,0.5-0.08,0.99-0.24,1.46c-0.16,0.47-0.39,0.89-0.68,1.26
		s-0.66,0.66-1.09,0.88c-0.64,0.33-1.48,0.41-2.33,0.25c-0.27-0.05-0.49-0.1-0.64-0.13v-7.76h1.11c0.62,0,1.18,0.1,1.65,0.3
		c0.48,0.2,0.88,0.48,1.21,0.83c0.32,0.35,0.58,0.78,0.75,1.27C110.82,67.59,110.91,68.14,110.91,68.73"/>
	<path style="clip-path:url(#SVGID_00000118364429032739558360000008511217525953989048_);fill:#D5BA78;" d="M218.35,14.45
		L218.35,14.45h-2.44c0-0.54,0.36-1.01,0.85-1.16c0.12-0.04,0.24-0.06,0.37-0.06C217.8,13.23,218.35,13.77,218.35,14.45"/>
	<path style="clip-path:url(#SVGID_00000118364429032739558360000008511217525953989048_);fill:#96853B;" d="M218.35,14.45
		c0,0.67-0.55,1.22-1.22,1.22c-0.04,0-0.08,0-0.12-0.01c-0.39-0.04-0.73-0.27-0.92-0.59c-0.11-0.18-0.17-0.4-0.17-0.63H218.35z"/>
	<path style="clip-path:url(#SVGID_00000118364429032739558360000008511217525953989048_);fill:#D5BA78;" d="M217.13,10.99
		L217.13,10.99c-0.25,0.69-0.88,1.79-0.88,1.79h0.88h0.88C218.01,12.77,217.38,11.68,217.13,10.99"/>
	<path style="clip-path:url(#SVGID_00000118364429032739558360000008511217525953989048_);fill:#96853B;" d="M217.13,12.77
		L217.13,12.77h-0.88l0.51,0.51c0.12-0.04,0.24-0.06,0.37-0.06c0.13,0,0.25,0.02,0.37,0.06l0.51-0.51H217.13z"/>
	<path style="clip-path:url(#SVGID_00000118364429032739558360000008511217525953989048_);fill:#959FA4;" d="M204.28,36.9
		c-0.12,0.08-0.23,0.15-0.34,0.23l0.25,0.32c0.12-0.08,0.23-0.16,0.35-0.23c3.1-2.01,6.71-3.29,10.59-3.63
		c0-0.13,0.01-0.27,0.02-0.4C211.17,33.51,207.46,34.83,204.28,36.9"/>
	<path style="clip-path:url(#SVGID_00000118364429032739558360000008511217525953989048_);fill:#959FA4;" d="M200.36,35.25
		c-2.08,1.63-3.93,3.56-5.46,5.71l-0.35-0.2c1.56-2.21,3.44-4.17,5.57-5.84L200.36,35.25z"/>
	<path style="clip-path:url(#SVGID_00000118364429032739558360000008511217525953989048_);fill:#959FA4;" d="M217.13,88.04
		c-0.41,0-0.81-0.01-1.21-0.02c0.05,0.06,0.11,0.11,0.16,0.17l0.24,0.25c0.27,0.01,0.54,0.01,0.82,0.01c0.27,0,0.54,0,0.82-0.01
		l0.24-0.25c0.05-0.05,0.1-0.11,0.16-0.17C217.94,88.03,217.54,88.04,217.13,88.04"/>
	<path style="clip-path:url(#SVGID_00000118364429032739558360000008511217525953989048_);fill:#959FA4;" d="M213.24,71.45
		c0.84,0.24,1.6,0.37,2.46,0.45l0,0.4c-0.81-0.07-1.52-0.19-2.32-0.4L213.24,71.45z"/>
	<path style="clip-path:url(#SVGID_00000118364429032739558360000008511217525953989048_);fill:#959FA4;" d="M186.33,49.25
		c0.11,0.04,0.24,0.09,0.38,0.13c2.83-11.65,12.19-20.78,23.98-23.25c-0.05-0.11-0.11-0.24-0.19-0.37
		C198.63,28.29,189.2,37.49,186.33,49.25"/>
	<path style="clip-path:url(#SVGID_00000118364429032739558360000008511217525953989048_);fill:#959FA4;" d="M192.72,44.58
		c-0.84,1.68-1.51,3.45-1.99,5.31c-0.14,0-0.28,0-0.42,0c0.49-1.91,1.18-3.75,2.04-5.48L192.72,44.58z"/>
	<path style="clip-path:url(#SVGID_00000118364429032739558360000008511217525953989048_);fill:#959FA4;" d="M190.21,52.37
		c-0.23,1.43-0.35,2.89-0.35,4.38c0,1.94,0.21,3.83,0.59,5.66c-0.13,0.05-0.25,0.09-0.38,0.14c-0.4-1.87-0.61-3.81-0.61-5.8
		c0-1.51,0.12-3,0.36-4.45L190.21,52.37z"/>
	<path style="clip-path:url(#SVGID_00000118364429032739558360000008511217525953989048_);fill:#959FA4;" d="M233.82,35.2
		c2.35,1.82,4.39,4.02,6.04,6.51c0.16-0.01,0.31-0.01,0.47-0.02l0,0c-1.7-2.6-3.82-4.91-6.27-6.81L233.82,35.2z"/>
	<path style="clip-path:url(#SVGID_00000118364429032739558360000008511217525953989048_);fill:#959FA4;" d="M227.46,45.04
		c0.45,0.4,0.88,0.83,1.28,1.27l-0.37,0.19c-0.37-0.4-0.75-0.78-1.16-1.14L227.46,45.04z"/>
	<path style="clip-path:url(#SVGID_00000118364429032739558360000008511217525953989048_);fill:#959FA4;" d="M229.15,41.23
		c1.21,0.94,2.31,2.02,3.27,3.21l-0.37,0.19c-0.93-1.14-1.99-2.18-3.15-3.08L229.15,41.23z"/>
	<path style="clip-path:url(#SVGID_00000118364429032739558360000008511217525953989048_);fill:#959FA4;" d="M231.36,38.37
		c1.63,1.27,3.09,2.75,4.34,4.4c0.12-0.06,0.25-0.12,0.38-0.17c-1.28-1.71-2.78-3.24-4.47-4.55L231.36,38.37z"/>
	<path style="clip-path:url(#SVGID_00000118364429032739558360000008511217525953989048_);fill:#959FA4;" d="M186.11,50.22
		c-0.44,2.11-0.68,4.29-0.68,6.53c0,3.75,0.65,7.34,1.85,10.68l0.36-0.18c-1.17-3.28-1.81-6.82-1.81-10.5
		c0-2.08,0.21-4.11,0.59-6.08C186.3,50.5,186.19,50.36,186.11,50.22L186.11,50.22z"/>
	<path style="clip-path:url(#SVGID_00000118364429032739558360000008511217525953989048_);fill:#959FA4;" d="M193.56,54.77
		c-0.05,0.65-0.08,1.31-0.08,1.98c0,1.62,0.16,3.2,0.47,4.72l0.4-0.06c-0.31-1.51-0.47-3.07-0.47-4.66c0-0.65,0.03-1.29,0.08-1.93
		C193.82,54.8,193.69,54.79,193.56,54.77L193.56,54.77z"/>
	<path style="clip-path:url(#SVGID_00000118364429032739558360000008511217525953989048_);fill:#959FA4;" d="M197.49,56.7
		c0,1.43,0.15,2.82,0.43,4.17l0.4-0.06c-0.29-1.32-0.43-2.69-0.43-4.1C197.76,56.71,197.57,56.71,197.49,56.7z"/>
	<path style="clip-path:url(#SVGID_00000118364429032739558360000008511217525953989048_);fill:#959FA4;" d="M201.58,58.27
		c0.06,0.59,0.15,1.17,0.27,1.75l0.37-0.19c-0.11-0.51-0.18-1.03-0.24-1.56C201.82,58.26,201.73,58.27,201.58,58.27L201.58,58.27z"
		/>
	<path style="clip-path:url(#SVGID_00000118364429032739558360000008511217525953989048_);fill:#959FA4;" d="M203.28,80.24
		c3.42,2.04,7.28,3.32,11.45,3.68c0,0-1.21,0.05-2.11,0.14c-3.47-0.57-6.57-1.7-9.48-3.43C203.14,80.62,203.26,80.33,203.28,80.24"
		/>
	<path style="clip-path:url(#SVGID_00000118364429032739558360000008511217525953989048_);fill:#959FA4;" d="M204.78,76.44
		c0.91,0.58,1.75,1.03,2.74,1.48c0.06,0.14,0.12,0.28,0.18,0.42l0.06,0.13c-1.14-0.49-2.11-1.01-3.14-1.66L204.78,76.44z"/>
	<path style="clip-path:url(#SVGID_00000118364429032739558360000008511217525953989048_);fill:#959FA4;" d="M211.66,87.97
		c-0.06-0.14-0.12-0.29-0.15-0.44c-4.5-0.82-8.67-2.61-12.29-5.14l0,0c-0.72-0.33-2.25-1.21-2.25-1.21
		C201.11,84.61,206.14,87,211.66,87.97"/>
	<path style="clip-path:url(#SVGID_00000118364429032739558360000008511217525953989048_);fill:#959FA4;" d="M206.55,72.81
		c0.36,0.24,0.73,0.47,1.11,0.68l-0.16,0.37c-0.39-0.22-0.78-0.46-1.15-0.7L206.55,72.81z"/>
	<path style="clip-path:url(#SVGID_00000118364429032739558360000008511217525953989048_);fill:#959FA4;" d="M215.69,75.93v0.4
		c-2.15-0.16-4.2-0.66-6.1-1.45c-0.09-0.13-0.17-0.26-0.25-0.39c-0.04-0.07-0.08-0.14-0.11-0.2
		C211.23,75.19,213.41,75.76,215.69,75.93"/>
	<path style="clip-path:url(#SVGID_00000118364429032739558360000008511217525953989048_);fill:#959FA4;" d="M196.01,46.1
		c-0.58,1.15-1.07,2.35-1.46,3.6c0.14-0.01,0.29-0.02,0.43-0.03c0.38-1.18,0.85-2.32,1.4-3.4L196.01,46.1z"/>
	<path style="clip-path:url(#SVGID_00000118364429032739558360000008511217525953989048_);fill:#959FA4;" d="M199.95,47.24
		c-0.42,0.76-0.79,1.54-1.11,2.35c0.14,0.01,0.28,0.02,0.42,0.03c0.3-0.76,0.66-1.49,1.05-2.2L199.95,47.24z"/>
	<path style="clip-path:url(#SVGID_00000118364429032739558360000008511217525953989048_);fill:#959FA4;" d="M203.54,49.06
		c-0.29,0.52-0.56,1.06-0.79,1.61c0.12,0.07,0.23,0.14,0.34,0.22c0.24-0.57,0.51-1.11,0.81-1.64L203.54,49.06z"/>
	<path style="clip-path:url(#SVGID_00000118364429032739558360000008511217525953989048_);fill:#959FA4;" d="M207.01,45.39
		l-0.25-0.32c-0.68,0.6-1.31,1.27-1.87,1.98l0.37,0.19C205.79,46.58,206.38,45.96,207.01,45.39"/>
	<path style="clip-path:url(#SVGID_00000118364429032739558360000008511217525953989048_);fill:#959FA4;" d="M205.04,41.28
		c-1.43,1.12-2.71,2.44-3.78,3.92l0.36,0.18c1.05-1.42,2.28-2.69,3.67-3.78L205.04,41.28z"/>
	<path style="clip-path:url(#SVGID_00000118364429032739558360000008511217525953989048_);fill:#959FA4;" d="M202.58,38.11
		c-1.7,1.33-3.22,2.89-4.5,4.63l0.35,0.2c1.25-1.69,2.73-3.21,4.39-4.51L202.58,38.11z"/>
	<path style="clip-path:url(#SVGID_00000118364429032739558360000008511217525953989048_);fill:#959FA4;" d="M247.92,49.25
		c-0.11,0.04-0.24,0.09-0.38,0.13c-2.83-11.65-12.19-20.78-23.98-23.25c0.05-0.11,0.11-0.24,0.19-0.37
		C235.63,28.29,245.06,37.49,247.92,49.25"/>
	<path style="clip-path:url(#SVGID_00000118364429032739558360000008511217525953989048_);fill:#959FA4;" d="M220.9,71.91
		c-0.77,0.2-1.55,0.32-2.34,0.39v-0.4c0.82-0.08,1.64-0.22,2.45-0.44L220.9,71.91z"/>
	<path style="clip-path:url(#SVGID_00000118364429032739558360000008511217525953989048_);fill:#959FA4;" d="M231.18,80.58
		c-2.89,1.71-6.11,2.91-9.54,3.47c-0.9-0.09-2.11-0.14-2.11-0.14c4.18-0.36,8.09-1.67,11.52-3.72L231.18,80.58z"/>
	<path style="clip-path:url(#SVGID_00000118364429032739558360000008511217525953989048_);fill:#959FA4;" d="M229.67,76.8
		c-1.01,0.63-2.07,1.19-3.17,1.67l0.06-0.13c0.07-0.14,0.13-0.28,0.18-0.42c0.95-0.43,1.87-0.93,2.75-1.49L229.67,76.8z"/>
	<path style="clip-path:url(#SVGID_00000118364429032739558360000008511217525953989048_);fill:#959FA4;" d="M237.3,81.18
		L237.3,81.18c0,0-1.54,0.88-2.25,1.21l0,0c-3.61,2.53-7.78,4.32-12.29,5.14c-0.04,0.15-0.09,0.29-0.15,0.43
		C228.12,87,233.15,84.61,237.3,81.18"/>
	<path style="clip-path:url(#SVGID_00000118364429032739558360000008511217525953989048_);fill:#959FA4;" d="M227.62,72.86
		c-0.34,0.22-0.68,0.43-1.03,0.63l0.16,0.37c0.36-0.2,0.72-0.42,1.07-0.65L227.62,72.86z"/>
	<path style="clip-path:url(#SVGID_00000118364429032739558360000008511217525953989048_);fill:#959FA4;" d="M225.02,74.29
		c-0.04,0.07-0.07,0.14-0.11,0.2c-0.08,0.13-0.16,0.26-0.25,0.39c-1.9,0.79-3.95,1.29-6.1,1.45v-0.4
		C220.85,75.76,223.03,75.19,225.02,74.29"/>
	<path style="clip-path:url(#SVGID_00000118364429032739558360000008511217525953989048_);fill:#959FA4;" d="M240.93,43.45
		c1.12,2,2,4.16,2.59,6.44c0.14,0,0.28,0,0.42,0c-0.61-2.4-1.54-4.68-2.74-6.79C241.11,43.22,241.02,43.34,240.93,43.45"/>
	<path style="clip-path:url(#SVGID_00000118364429032739558360000008511217525953989048_);fill:#959FA4;" d="M237.84,46.19
		c0.57,1.11,1.05,2.28,1.44,3.48c0.14,0.01,0.29,0.02,0.43,0.03c-0.4-1.29-0.92-2.54-1.53-3.73
		C237.92,46.15,237.87,46.17,237.84,46.19"/>
	<path style="clip-path:url(#SVGID_00000118364429032739558360000008511217525953989048_);fill:#959FA4;" d="M234.28,48.04
		c0.26,0.52,0.5,1.05,0.72,1.59c0.14-0.01,0.28-0.02,0.42-0.03c-0.23-0.59-0.49-1.17-0.78-1.73L234.28,48.04z"/>
	<path style="clip-path:url(#SVGID_00000118364429032739558360000008511217525953989048_);fill:#959FA4;" d="M230.7,49.86l0.36-0.18
		c0.16,0.33,0.32,0.65,0.46,0.99c-0.12,0.07-0.23,0.14-0.34,0.22C231.03,50.54,230.87,50.2,230.7,49.86"/>
	<path style="clip-path:url(#SVGID_00000118364429032739558360000008511217525953989048_);fill:#959FA4;" d="M244.45,52.3l-0.4,0.07
		c0.23,1.43,0.35,2.89,0.35,4.38c0,2.15-0.25,4.24-0.72,6.25l0.41-0.01c0.46-2.01,0.71-4.1,0.71-6.24
		C244.8,55.23,244.68,53.75,244.45,52.3z"/>
	<path style="clip-path:url(#SVGID_00000118364429032739558360000008511217525953989048_);fill:#959FA4;" d="M240.7,54.77
		c-0.13,0.02-0.26,0.04-0.4,0.05c0.05,0.64,0.08,1.28,0.08,1.93c0,1.72-0.19,3.39-0.54,5l0.37,0.17c0.37-1.67,0.57-3.4,0.57-5.17
		C240.78,56.08,240.76,55.42,240.7,54.77L240.7,54.77z"/>
	<path style="clip-path:url(#SVGID_00000118364429032739558360000008511217525953989048_);fill:#959FA4;" d="M236.36,56.71
		c0.05,0,0.1,0,0.15,0l0.02,0c0.08,0,0.16,0,0.23-0.01c0,1.53-0.17,3.02-0.5,4.46l-0.41,0C236.19,59.74,236.37,58.24,236.36,56.71"
		/>
	<path style="clip-path:url(#SVGID_00000118364429032739558360000008511217525953989048_);fill:#959FA4;" d="M232.27,58.26
		c0.12,0,0.24,0,0.35,0.01c0.02,0,0.03,0,0.05,0h0c-0.09,0.92-0.26,1.82-0.5,2.68l-0.36-0.19
		C232.03,59.96,232.19,59.12,232.27,58.26L232.27,58.26z"/>
	<path style="clip-path:url(#SVGID_00000118364429032739558360000008511217525953989048_);fill:#409757;" d="M199.32,22.4
		c-1.32,1.14-2.31,2.41-2.96,3.72c-0.65,1.31-0.94,2.59-0.96,3.78C196.26,27.37,197.54,24.83,199.32,22.4"/>
	<path style="clip-path:url(#SVGID_00000118364429032739558360000008511217525953989048_);fill:#409757;" d="M202.78,21.3
		c-1.38,0.96-2.47,2.06-3.23,3.22c-0.77,1.17-1.18,2.33-1.33,3.45C199.32,25.69,200.82,23.43,202.78,21.3"/>
	<path style="clip-path:url(#SVGID_00000118364429032739558360000008511217525953989048_);fill:#409757;" d="M206.25,20.55
		c-1.43,0.78-2.58,1.72-3.44,2.74c-0.86,1.02-1.38,2.07-1.65,3.1C202.48,24.35,204.16,22.37,206.25,20.55"/>
	<path style="clip-path:url(#SVGID_00000118364429032739558360000008511217525953989048_);fill:#409757;" d="M195.89,23.88
		L195.89,23.88c-1.23,1.34-2.1,2.78-2.62,4.23c-0.52,1.45-0.67,2.83-0.54,4.08h0C193.31,29.43,194.34,26.62,195.89,23.88"/>
	<path style="clip-path:url(#SVGID_00000118364429032739558360000008511217525953989048_);fill:#409757;" d="M190.59,91.43
		c3.39,1.29,6.87,1.72,10.05,1.4c2.91-0.29,5.41-1.18,7.4-2.41c-0.12-0.03-0.24-0.05-0.37-0.08
		C202.27,91.89,196.43,92.33,190.59,91.43"/>
	<path style="clip-path:url(#SVGID_00000118364429032739558360000008511217525953989048_);fill:#409757;" d="M185.34,86.53
		c2.91,1.76,6,2.73,8.93,2.93c2.78,0.2,5.26-0.28,7.32-1.17c-0.07-0.03-0.13-0.06-0.2-0.09C196.2,88.84,190.7,88.34,185.34,86.53"/>
	<path style="clip-path:url(#SVGID_00000118364429032739558360000008511217525953989048_);fill:#409757;" d="M181.32,81.04
		L181.32,81.04c2.44,2.12,5.15,3.51,7.82,4.17c2.59,0.64,5,0.57,7.09,0.02c-0.03-0.02-0.06-0.04-0.09-0.06
		C191.21,84.97,186.14,83.62,181.32,81.04"/>
	<path style="clip-path:url(#SVGID_00000118364429032739558360000008511217525953989048_);fill:#409757;" d="M178.43,75.21
		c2,2.37,4.32,4.11,6.71,5.15c2.34,1.02,4.61,1.33,6.66,1.12c-0.02-0.02-0.03-0.03-0.05-0.05
		C187.21,80.46,182.64,78.39,178.43,75.21"/>
	<path style="clip-path:url(#SVGID_00000118364429032739558360000008511217525953989048_);fill:#409757;" d="M176.56,69.24
		c1.58,2.54,3.52,4.53,5.62,5.88c2.06,1.32,4.14,1.95,6.1,2.08c-0.01-0.02-0.03-0.04-0.04-0.06
		C184.13,75.5,180.12,72.86,176.56,69.24"/>
	<path style="clip-path:url(#SVGID_00000118364429032739558360000008511217525953989048_);fill:#409757;" d="M175.59,63.3
		c1.18,2.63,2.77,4.8,4.58,6.38c1.76,1.54,3.63,2.45,5.45,2.86c-0.01-0.03-0.03-0.05-0.04-0.08
		C181.95,70.29,178.52,67.22,175.59,63.3"/>
	<path style="clip-path:url(#SVGID_00000118364429032739558360000008511217525953989048_);fill:#409757;" d="M175.43,57.52
		c0.81,2.66,2.05,4.93,3.57,6.69c1.46,1.69,3.09,2.82,4.75,3.48c-0.01-0.04-0.02-0.08-0.04-0.11
		C180.6,64.99,177.74,61.61,175.43,57.52"/>
	<path style="clip-path:url(#SVGID_00000118364429032739558360000008511217525953989048_);fill:#409757;" d="M175.98,52.03
		c0.47,2.62,1.39,4.95,2.62,6.82c1.17,1.77,2.56,3.06,4.03,3.92c-0.01-0.05-0.02-0.1-0.02-0.16
		C179.99,59.73,177.7,56.16,175.98,52.03"/>
	<path style="clip-path:url(#SVGID_00000118364429032739558360000008511217525953989048_);fill:#409757;" d="M177.14,46.9
		c0.16,2.55,0.77,4.86,1.73,6.8c0.9,1.82,2.05,3.21,3.33,4.22c0-0.06,0-0.11,0-0.17C179.94,54.57,178.29,50.87,177.14,46.9"/>
	<path style="clip-path:url(#SVGID_00000118364429032739558360000008511217525953989048_);fill:#409757;" d="M178.83,42.19
		c-0.13,2.43,0.2,4.69,0.9,6.65c0.65,1.83,1.59,3.29,2.68,4.42c0.01-0.06,0.01-0.11,0.02-0.17
		C180.72,49.85,179.49,46.06,178.83,42.19"/>
	<path style="clip-path:url(#SVGID_00000118364429032739558360000008511217525953989048_);fill:#409757;" d="M180.97,37.94
		c-0.38,2.28-0.31,4.46,0.14,6.4c0.42,1.82,1.15,3.33,2.08,4.54c0.01-0.05,0.03-0.11,0.04-0.16
		C182.07,45.54,181.18,41.67,180.97,37.94"/>
	<path style="clip-path:url(#SVGID_00000118364429032739558360000008511217525953989048_);fill:#409757;" d="M183.48,34.17
		c-0.61,2.11-0.78,4.18-0.56,6.06c0.21,1.79,0.75,3.32,1.5,4.59c0.02-0.04,0.03-0.08,0.05-0.12
		C183.7,41.53,183.28,37.76,183.48,34.17"/>
	<path style="clip-path:url(#SVGID_00000118364429032739558360000008511217525953989048_);fill:#409757;" d="M186.29,30.89
		c-0.8,1.93-1.19,3.85-1.18,5.66c0,1.74,0.36,3.27,0.96,4.57c0.01-0.03,0.03-0.05,0.04-0.08C185.7,37.91,185.7,34.32,186.29,30.89"
		/>
	<path style="clip-path:url(#SVGID_00000118364429032739558360000008511217525953989048_);fill:#409757;" d="M189.33,28.09
		c-0.97,1.73-1.54,3.51-1.73,5.21c-0.19,1.67-0.01,3.17,0.43,4.48c0.01-0.01,0.02-0.03,0.03-0.04
		C188,34.69,188.38,31.33,189.33,28.09"/>
	<path style="clip-path:url(#SVGID_00000118364429032739558360000008511217525953989048_);fill:#409757;" d="M192.55,25.76
		L192.55,25.76c-1.11,1.53-1.85,3.15-2.21,4.73c-0.36,1.57-0.35,3.02-0.07,4.31c0-0.01,0.01-0.01,0.01-0.02
		C190.55,31.86,191.28,28.77,192.55,25.76"/>
	<path style="clip-path:url(#SVGID_00000118364429032739558360000008511217525953989048_);fill:#409757;" d="M213.84,91.87
		c-5.19,2.2-10.82,3.47-16.65,3.58c3.88,0.7,7.75,0.49,11.14-0.44c2.12-0.58,3.98-1.41,5.55-2.39c-0.03-0.09-0.05-0.18-0.05-0.27
		V91.87z"/>
	<path style="clip-path:url(#SVGID_00000118364429032739558360000008511217525953989048_);fill:#007030;" d="M197.67,26.12
		c0.69-1.28,1.25-2.51,1.65-3.72c-1.78,2.43-3.06,4.97-3.92,7.5C196.21,28.65,196.98,27.39,197.67,26.12"/>
	<path style="clip-path:url(#SVGID_00000118364429032739558360000008511217525953989048_);fill:#007030;" d="M200.81,24.64
		c0.79-1.13,1.47-2.24,1.97-3.34c-1.96,2.12-3.46,4.38-4.56,6.67C199.14,26.88,200.01,25.77,200.81,24.64"/>
	<path style="clip-path:url(#SVGID_00000118364429032739558360000008511217525953989048_);fill:#007030;" d="M204.02,23.5
		c0.88-0.99,1.64-1.97,2.24-2.95c-2.09,1.83-3.77,3.8-5.08,5.84C202.17,25.45,203.13,24.49,204.02,23.5"/>
	<path style="clip-path:url(#SVGID_00000118364429032739558360000008511217525953989048_);fill:#007030;" d="M213.84,91.34
		c-2.73,0.68-5.32,1.26-7.81,1.84c-3.26,0.75-6.19,1.45-8.84,2.28c5.83-0.11,11.45-1.38,16.65-3.58V91.34z"/>
	<path style="clip-path:url(#SVGID_00000118364429032739558360000008511217525953989048_);fill:#007030;" d="M213.97,90.6
		c-16.68-1.26-28.4-13.2-30.6-28.54c-2.24-15.96,5.93-30.07,19.04-36.02c1.62-0.76,3.42-1.34,3.86-1.49l-0.02-0.06
		c0,0-0.36,0.11-1.04,0.32c-4.87,1.57-9.06,4.13-12.48,7.38c0.69-1.41,1.34-2.81,1.89-4.22c0.56-1.42,0.99-2.77,1.27-4.08
		c-1.55,2.74-2.58,5.55-3.16,8.31c-0.86,0.82-1.67,1.68-2.43,2.58c0.53-1.53,1.02-3.05,1.42-4.57c0.41-1.55,0.7-3.02,0.83-4.43
		c-1.27,3-2,6.1-2.27,9.02c0,0.01-0.01,0.01-0.01,0.02c-0.78,0.92-1.5,1.87-2.17,2.87c0.36-1.62,0.67-3.23,0.9-4.84
		c0.24-1.67,0.36-3.25,0.33-4.74c-0.94,3.23-1.33,6.59-1.28,9.64c-0.01,0.01-0.02,0.03-0.03,0.04c-0.68,1.01-1.3,2.06-1.86,3.14
		c0.17-1.69,0.29-3.37,0.34-5.03c0.05-1.77-0.01-3.44-0.21-5c-0.59,3.43-0.59,7.02-0.19,10.15c-0.01,0.02-0.03,0.05-0.04,0.08
		c-0.57,1.1-1.07,2.24-1.52,3.4c-0.03-1.74-0.1-3.45-0.25-5.14c-0.16-1.86-0.42-3.59-0.81-5.2c-0.2,3.59,0.23,7.36,0.99,10.53
		c-0.01,0.04-0.03,0.08-0.04,0.12c-0.45,1.19-0.83,2.41-1.14,3.65c-0.24-1.76-0.51-3.5-0.86-5.21c-0.39-1.91-0.86-3.7-1.45-5.32
		c0.21,3.73,1.09,7.6,2.25,10.78c-0.01,0.05-0.03,0.11-0.04,0.16c-0.31,1.28-0.55,2.59-0.71,3.91c-0.46-1.77-0.95-3.52-1.5-5.23
		c-0.63-1.94-1.33-3.74-2.13-5.36c0.65,3.88,1.88,7.66,3.6,10.9c-0.01,0.06-0.01,0.11-0.02,0.17c-0.15,1.38-0.23,2.77-0.22,4.17
		c-0.7-1.78-1.42-3.53-2.21-5.24c-0.89-1.93-1.82-3.7-2.85-5.29c1.14,3.98,2.8,7.67,5.06,10.85c0,0.06,0,0.11,0,0.17
		c0.03,1.47,0.15,2.94,0.36,4.42c-0.97-1.77-1.95-3.51-3-5.21c-1.16-1.88-2.33-3.59-3.59-5.09c1.72,4.13,4.01,7.7,6.63,10.58
		c0.01,0.05,0.02,0.1,0.02,0.16c0.24,1.54,0.58,3.08,1.03,4.6c-1.28-1.73-2.56-3.43-3.89-5.08c-1.44-1.77-2.86-3.38-4.34-4.76
		c2.31,4.08,5.17,7.47,8.29,10.05c0.01,0.04,0.02,0.08,0.04,0.12c0.47,1.56,1.06,3.1,1.76,4.63c-1.61-1.61-3.19-3.2-4.82-4.73
		c-1.72-1.61-3.4-3.06-5.1-4.28c2.93,3.92,6.36,7,9.99,9.16c0.01,0.03,0.03,0.05,0.04,0.08c0.75,1.59,1.6,3.08,2.55,4.49
		c-1.94-1.41-3.84-2.81-5.77-4.15c-2-1.39-3.93-2.63-5.85-3.64c3.57,3.63,7.58,6.27,11.69,7.89c0.01,0.02,0.03,0.04,0.04,0.06
		c1.02,1.49,2.16,2.88,3.39,4.15c-2.27-1.11-4.47-2.24-6.67-3.3c-2.28-1.1-4.45-2.08-6.57-2.82c4.2,3.18,8.78,5.25,13.33,6.22
		c0.02,0.02,0.03,0.03,0.05,0.05c1.29,1.32,2.68,2.51,4.17,3.58c-2.54-0.72-4.98-1.48-7.4-2.19c-2.56-0.75-4.95-1.4-7.25-1.82
		c4.81,2.58,9.89,3.93,14.81,4.13c0.03,0.02,0.06,0.04,0.09,0.06c1.53,1.08,3.15,2.01,4.84,2.81c-2.72-0.26-5.31-0.59-7.85-0.88
		c-2.81-0.32-5.42-0.58-7.87-0.64c5.36,1.82,10.86,2.32,16.06,1.68c0.07,0.03,0.13,0.06,0.2,0.09c1.75,0.78,3.57,1.42,5.46,1.89
		c-2.8,0.22-5.47,0.36-8.05,0.51c-3.05,0.18-5.84,0.37-8.41,0.73c5.83,0.91,11.68,0.46,17.08-1.09c0.12,0.03,0.24,0.06,0.37,0.08
		c1.88,0.42,3.82,0.68,5.79,0.77v-0.15C213.84,90.88,213.89,90.73,213.97,90.6"/>
	<path style="clip-path:url(#SVGID_00000118364429032739558360000008511217525953989048_);fill:#409757;" d="M234.94,22.4
		c1.32,1.14,2.31,2.41,2.96,3.72c0.65,1.31,0.94,2.59,0.96,3.78C238,27.37,236.72,24.83,234.94,22.4"/>
	<path style="clip-path:url(#SVGID_00000118364429032739558360000008511217525953989048_);fill:#409757;" d="M231.48,21.3
		c1.38,0.96,2.47,2.06,3.23,3.22c0.77,1.17,1.18,2.33,1.33,3.45C234.93,25.69,233.43,23.43,231.48,21.3"/>
	<path style="clip-path:url(#SVGID_00000118364429032739558360000008511217525953989048_);fill:#409757;" d="M228.01,20.55
		c1.43,0.78,2.58,1.72,3.44,2.74c0.86,1.02,1.38,2.07,1.65,3.1C231.78,24.35,230.1,22.37,228.01,20.55"/>
	<path style="clip-path:url(#SVGID_00000118364429032739558360000008511217525953989048_);fill:#409757;" d="M238.37,23.88
		L238.37,23.88c1.23,1.34,2.1,2.78,2.62,4.23c0.52,1.45,0.67,2.83,0.54,4.08h0C240.94,29.43,239.92,26.62,238.37,23.88"/>
	<path style="clip-path:url(#SVGID_00000118364429032739558360000008511217525953989048_);fill:#409757;" d="M243.67,91.43
		c-3.39,1.29-6.87,1.72-10.05,1.4c-2.91-0.29-5.41-1.18-7.4-2.41c0.12-0.03,0.24-0.05,0.37-0.08
		C231.99,91.89,237.83,92.33,243.67,91.43"/>
	<path style="clip-path:url(#SVGID_00000118364429032739558360000008511217525953989048_);fill:#409757;" d="M248.92,86.53
		c-2.91,1.76-6,2.73-8.94,2.93c-2.78,0.2-5.26-0.28-7.32-1.17c0.07-0.03,0.13-0.06,0.2-0.09C238.06,88.84,243.56,88.34,248.92,86.53
		"/>
	<path style="clip-path:url(#SVGID_00000118364429032739558360000008511217525953989048_);fill:#409757;" d="M252.93,81.04
		L252.93,81.04c-2.44,2.12-5.15,3.51-7.82,4.17c-2.59,0.64-5,0.57-7.09,0.02c0.03-0.02,0.06-0.04,0.09-0.06
		C243.05,84.97,248.12,83.62,252.93,81.04"/>
	<path style="clip-path:url(#SVGID_00000118364429032739558360000008511217525953989048_);fill:#409757;" d="M255.83,75.21
		c-2,2.37-4.32,4.11-6.71,5.15c-2.35,1.02-4.62,1.33-6.67,1.12c0.02-0.02,0.03-0.03,0.05-0.05
		C247.05,80.46,251.62,78.39,255.83,75.21"/>
	<path style="clip-path:url(#SVGID_00000118364429032739558360000008511217525953989048_);fill:#409757;" d="M257.7,69.24
		c-1.58,2.54-3.53,4.53-5.62,5.88c-2.06,1.32-4.15,1.95-6.1,2.08c0.01-0.02,0.03-0.04,0.04-0.06
		C250.12,75.5,254.14,72.86,257.7,69.24"/>
	<path style="clip-path:url(#SVGID_00000118364429032739558360000008511217525953989048_);fill:#409757;" d="M258.67,63.3
		c-1.18,2.63-2.77,4.8-4.58,6.38c-1.76,1.54-3.63,2.45-5.45,2.86c0.01-0.03,0.03-0.05,0.04-0.08
		C252.31,70.29,255.74,67.22,258.67,63.3"/>
	<path style="clip-path:url(#SVGID_00000118364429032739558360000008511217525953989048_);fill:#409757;" d="M258.83,57.52
		c-0.81,2.66-2.06,4.93-3.57,6.69c-1.46,1.69-3.1,2.82-4.75,3.48c0.01-0.04,0.02-0.08,0.04-0.11
		C253.66,64.99,256.52,61.61,258.83,57.52"/>
	<path style="clip-path:url(#SVGID_00000118364429032739558360000008511217525953989048_);fill:#409757;" d="M258.28,52.03
		c-0.47,2.62-1.39,4.95-2.62,6.82c-1.17,1.77-2.56,3.06-4.03,3.92c0.01-0.05,0.02-0.1,0.02-0.16
		C254.27,59.73,256.56,56.16,258.28,52.03"/>
	<path style="clip-path:url(#SVGID_00000118364429032739558360000008511217525953989048_);fill:#409757;" d="M257.12,46.9
		c-0.16,2.55-0.77,4.86-1.73,6.8c-0.9,1.82-2.05,3.21-3.33,4.22l0-0.17C254.31,54.57,255.97,50.87,257.12,46.9"/>
	<path style="clip-path:url(#SVGID_00000118364429032739558360000008511217525953989048_);fill:#409757;" d="M255.42,42.19
		c0.13,2.43-0.2,4.69-0.9,6.65c-0.65,1.83-1.59,3.29-2.68,4.42c-0.01-0.06-0.01-0.11-0.02-0.17
		C253.54,49.85,254.77,46.06,255.42,42.19"/>
	<path style="clip-path:url(#SVGID_00000118364429032739558360000008511217525953989048_);fill:#409757;" d="M253.29,37.94
		c0.38,2.28,0.31,4.46-0.14,6.4c-0.42,1.82-1.15,3.33-2.08,4.54c-0.01-0.05-0.03-0.11-0.04-0.16
		C252.19,45.54,253.08,41.67,253.29,37.94"/>
	<path style="clip-path:url(#SVGID_00000118364429032739558360000008511217525953989048_);fill:#409757;" d="M250.78,34.17
		c0.61,2.11,0.78,4.18,0.56,6.06c-0.21,1.79-0.75,3.32-1.5,4.59c-0.02-0.04-0.03-0.08-0.05-0.12
		C250.55,41.53,250.98,37.76,250.78,34.17"/>
	<path style="clip-path:url(#SVGID_00000118364429032739558360000008511217525953989048_);fill:#409757;" d="M247.97,30.89
		c0.8,1.93,1.18,3.85,1.18,5.66c0,1.74-0.36,3.27-0.96,4.57c-0.01-0.03-0.03-0.05-0.04-0.08C248.56,37.91,248.56,34.32,247.97,30.89
		"/>
	<path style="clip-path:url(#SVGID_00000118364429032739558360000008511217525953989048_);fill:#409757;" d="M244.93,28.09
		c0.97,1.73,1.54,3.51,1.73,5.21c0.19,1.67,0.01,3.17-0.43,4.48c-0.01-0.01-0.02-0.03-0.03-0.04
		C246.26,34.69,245.87,31.33,244.93,28.09"/>
	<path style="clip-path:url(#SVGID_00000118364429032739558360000008511217525953989048_);fill:#409757;" d="M241.71,25.76
		L241.71,25.76c1.11,1.53,1.85,3.15,2.21,4.73c0.36,1.57,0.35,3.02,0.07,4.31c-0.01-0.01-0.01-0.01-0.01-0.02
		C243.71,31.86,242.98,28.77,241.71,25.76"/>
	<path style="clip-path:url(#SVGID_00000118364429032739558360000008511217525953989048_);fill:#409757;" d="M220.42,91.87
		c5.19,2.2,10.82,3.47,16.65,3.58c-3.88,0.7-7.75,0.49-11.14-0.44c-2.12-0.58-3.98-1.41-5.55-2.39c0.03-0.09,0.05-0.18,0.05-0.27
		V91.87z"/>
	<path style="clip-path:url(#SVGID_00000118364429032739558360000008511217525953989048_);fill:#007030;" d="M236.59,26.12
		c-0.69-1.28-1.25-2.51-1.65-3.72c1.78,2.43,3.06,4.97,3.92,7.5C238.05,28.65,237.28,27.39,236.59,26.12"/>
	<path style="clip-path:url(#SVGID_00000118364429032739558360000008511217525953989048_);fill:#007030;" d="M233.45,24.64
		c-0.8-1.13-1.47-2.24-1.97-3.34c1.96,2.12,3.46,4.38,4.56,6.67C235.12,26.88,234.24,25.77,233.45,24.64"/>
	<path style="clip-path:url(#SVGID_00000118364429032739558360000008511217525953989048_);fill:#007030;" d="M230.24,23.5
		c-0.88-0.99-1.64-1.97-2.24-2.95c2.09,1.83,3.77,3.8,5.08,5.84C232.09,25.45,231.13,24.49,230.24,23.5"/>
	<path style="clip-path:url(#SVGID_00000118364429032739558360000008511217525953989048_);fill:#007030;" d="M220.42,91.34
		c2.73,0.68,5.32,1.26,7.81,1.84c3.26,0.75,6.19,1.45,8.84,2.28c-5.83-0.11-11.45-1.38-16.65-3.58V91.34z"/>
	<path style="clip-path:url(#SVGID_00000118364429032739558360000008511217525953989048_);fill:#007030;" d="M220.29,90.6
		c16.68-1.26,28.4-13.2,30.6-28.54c2.24-15.96-5.93-30.07-19.04-36.02c-1.62-0.76-3.42-1.34-3.86-1.49l0.02-0.06
		c0,0,0.36,0.11,1.03,0.32c4.87,1.57,9.06,4.13,12.49,7.38c-0.69-1.41-1.34-2.81-1.89-4.22c-0.56-1.42-0.99-2.77-1.27-4.08
		c1.55,2.74,2.58,5.55,3.16,8.31c0.86,0.82,1.67,1.68,2.43,2.58c-0.53-1.53-1.02-3.05-1.42-4.57c-0.41-1.55-0.7-3.02-0.83-4.43
		c1.27,3,2,6.1,2.27,9.02c0,0.01,0.01,0.01,0.01,0.02c0.78,0.92,1.5,1.87,2.17,2.87c-0.36-1.62-0.67-3.23-0.9-4.84
		c-0.23-1.67-0.36-3.25-0.33-4.74c0.94,3.23,1.33,6.59,1.28,9.64c0.01,0.01,0.02,0.03,0.03,0.04c0.68,1.01,1.3,2.06,1.86,3.14
		c-0.17-1.69-0.29-3.37-0.34-5.03c-0.05-1.77,0.01-3.44,0.21-5c0.59,3.43,0.59,7.02,0.19,10.15c0.01,0.02,0.03,0.05,0.04,0.08
		c0.57,1.1,1.07,2.24,1.52,3.4c0.03-1.74,0.1-3.45,0.25-5.14c0.16-1.86,0.42-3.59,0.81-5.2c0.2,3.59-0.23,7.36-0.99,10.53
		c0.01,0.04,0.03,0.08,0.04,0.12c0.45,1.19,0.83,2.41,1.14,3.65c0.24-1.76,0.51-3.5,0.86-5.21c0.39-1.91,0.86-3.7,1.45-5.32
		c-0.21,3.73-1.1,7.6-2.25,10.78c0.01,0.05,0.03,0.11,0.04,0.16c0.31,1.28,0.55,2.59,0.71,3.91c0.46-1.77,0.95-3.52,1.51-5.23
		c0.63-1.94,1.32-3.74,2.13-5.36c-0.65,3.88-1.88,7.66-3.6,10.9c0.01,0.06,0.01,0.11,0.02,0.17c0.15,1.38,0.23,2.77,0.22,4.17
		c0.7-1.78,1.42-3.53,2.21-5.24c0.89-1.93,1.82-3.7,2.85-5.29c-1.14,3.98-2.8,7.67-5.06,10.85l0,0.17
		c-0.03,1.47-0.15,2.94-0.36,4.42c0.97-1.77,1.95-3.51,3-5.21c1.16-1.88,2.33-3.59,3.59-5.09c-1.72,4.13-4.01,7.7-6.63,10.58
		c-0.01,0.05-0.02,0.1-0.02,0.16c-0.24,1.54-0.58,3.08-1.03,4.6c1.28-1.73,2.56-3.43,3.89-5.08c1.44-1.77,2.86-3.38,4.34-4.76
		c-2.31,4.08-5.17,7.47-8.29,10.05c-0.01,0.04-0.02,0.08-0.03,0.12c-0.47,1.56-1.06,3.1-1.76,4.63c1.61-1.61,3.19-3.2,4.82-4.73
		c1.72-1.61,3.4-3.06,5.1-4.28c-2.93,3.92-6.36,7-9.99,9.16c-0.01,0.03-0.03,0.05-0.04,0.08c-0.75,1.59-1.6,3.08-2.55,4.49
		c1.94-1.41,3.84-2.81,5.77-4.15c2-1.39,3.93-2.63,5.84-3.64c-3.57,3.63-7.58,6.27-11.69,7.89c-0.01,0.02-0.03,0.04-0.04,0.06
		c-1.02,1.49-2.16,2.88-3.39,4.15c2.27-1.11,4.47-2.24,6.67-3.3c2.28-1.1,4.45-2.08,6.57-2.82c-4.2,3.18-8.78,5.25-13.33,6.22
		c-0.02,0.02-0.03,0.03-0.05,0.05c-1.29,1.32-2.68,2.51-4.17,3.58c2.54-0.72,4.98-1.48,7.4-2.19c2.56-0.75,4.95-1.4,7.25-1.82
		c-4.81,2.58-9.89,3.93-14.81,4.13c-0.03,0.02-0.06,0.04-0.09,0.06c-1.53,1.08-3.15,2.01-4.84,2.81c2.72-0.26,5.31-0.59,7.85-0.88
		c2.81-0.32,5.42-0.58,7.87-0.64c-5.36,1.82-10.86,2.32-16.06,1.68c-0.07,0.03-0.13,0.06-0.2,0.09c-1.75,0.78-3.57,1.42-5.46,1.89
		c2.8,0.22,5.47,0.36,8.05,0.51c3.05,0.18,5.84,0.37,8.41,0.73c-5.83,0.91-11.68,0.46-17.08-1.09c-0.12,0.03-0.24,0.06-0.37,0.08
		c-1.88,0.42-3.82,0.68-5.79,0.77v-0.15C220.42,90.88,220.37,90.73,220.29,90.6"/>
	<path style="clip-path:url(#SVGID_00000118364429032739558360000008511217525953989048_);fill:#921913;" d="M217.13,86.99
		L217.13,86.99h2.8c0.42-0.63,0.79-1.3,1.09-2.01l0.2-0.47l0.01-0.02h-4.09h-4.09l0.21,0.49c0.23,0.55,0.5,1.08,0.82,1.58
		c0.09,0.14,0.18,0.28,0.27,0.42H217.13z"/>
	<path style="clip-path:url(#SVGID_00000118364429032739558360000008511217525953989048_);fill:#CA3C42;" d="M219.2,93.13h0.44
		c0.34,0,0.63-0.21,0.74-0.51c0.03-0.09,0.05-0.18,0.05-0.27v-0.47v-0.53v-0.14v-0.15c0-0.16-0.05-0.32-0.14-0.44
		c-0.09-0.12-0.2-0.22-0.35-0.28l1.95-2.24c0.56-0.64,0.63-1.58,0.16-2.3l-0.83-1.28l-0.01,0.02l-0.2,0.47
		c-0.3,0.7-0.66,1.38-1.09,2.01c-0.38,0.56-0.8,1.08-1.27,1.57l-1.53,1.6l-1.54-1.6c-0.47-0.49-0.89-1.01-1.27-1.57
		c-0.09-0.14-0.18-0.28-0.27-0.42c-0.31-0.51-0.58-1.04-0.82-1.58l-0.2-0.49l-0.83,1.28c-0.47,0.72-0.4,1.66,0.16,2.3l1.95,2.24
		c-0.14,0.06-0.26,0.16-0.35,0.28c-0.09,0.13-0.14,0.28-0.14,0.44v0.15v0.14v0.53v0.47c0,0.1,0.02,0.19,0.05,0.27
		c0.11,0.3,0.4,0.51,0.74,0.51h0.43c-1.24,1.33-2.88,2.52-5.04,3.54h3.05c0,0,2.33-1.9,3.15-3.54h0h0.9h0.9h0
		c0.82,1.64,3.15,3.54,3.15,3.54h3.05C222.08,95.65,220.44,94.45,219.2,93.13"/>
	<path style="clip-path:url(#SVGID_00000118364429032739558360000008511217525953989048_);fill:#921913;" d="M213.07,96.67
		l-0.01,2.99c1.88-2.08,3.35-4.2,4.06-6.36c0.71,2.16,2.19,4.27,4.06,6.36l-0.01-2.99c0,0-2.33-1.9-3.15-3.54h-1.81
		C215.4,94.77,213.07,96.67,213.07,96.67"/>
	<path style="clip-path:url(#SVGID_00000118364429032739558360000008511217525953989048_);fill:#007030;" d="M224.75,57.54
		c-2.23,0-5.3,1.58-7.06,2.6c-0.34-3.75-0.21-6.18-0.11-7.44c0-0.01,0.01-0.01,0.02-0.01c1.09,0.69,0.78,2.6,0.56,3.15
		c0,0.01,0.01,0.02,0.02,0.01c1.36-1.6,0.69-3.38,0.42-3.83c-0.01-0.01,0.01-0.02,0.02-0.01c1.21,0.99,1.16,2.3,1.09,3.03
		c0,0.01,0.02,0.01,0.02,0.01c0.49-0.97,0.64-2.61-0.87-3.94c-0.01-0.01,0-0.02,0.01-0.02c1.35,0.33,1.9,1.61,1.91,2.56
		c0,0.02,0,0.03,0,0.05c0,0.01,0.02,0.01,0.02,0c0.19-0.72,0.15-1.3-0.02-1.76c-0.39-1.05-1.45-1.51-1.97-1.58
		c-0.01,0-0.01-0.02,0-0.02c1.01-0.09,1.62,0.22,1.96,0.53c0.22,0.19,0.33,0.38,0.38,0.46c0.01,0.01,0.02,0,0.02-0.01
		c-0.04-0.39-0.19-0.7-0.4-0.96c-0.6-0.71-1.72-0.91-2.44-0.61c-0.01,0-0.02-0.01-0.01-0.02c0.47-0.67,1.4-0.74,1.9-0.51
		c0.01,0.01,0.02-0.01,0.01-0.02c-0.74-0.85-1.96-0.87-2.61,0.11c-0.01,0.01-0.01,0.01-0.02,0c-0.07-0.13-0.14-0.27-0.2-0.41
		c-0.14-0.32-0.2-0.68-0.26-1.04c0-0.02-0.02-0.02-0.03,0c-0.06,0.36-0.12,0.72-0.26,1.04c-0.06,0.15-0.13,0.29-0.2,0.41
		c0,0.01-0.01,0.01-0.02,0c-0.65-0.99-1.87-0.97-2.61-0.11c-0.01,0.01,0,0.02,0.01,0.02c0.49-0.24,1.43-0.17,1.9,0.51
		c0.01,0.01,0,0.02-0.01,0.02c-0.72-0.3-1.84-0.11-2.44,0.61c-0.21,0.25-0.36,0.57-0.4,0.96c0,0.01,0.01,0.02,0.02,0.01
		c0.05-0.09,0.16-0.28,0.38-0.46c0.35-0.31,0.96-0.62,1.96-0.53c0.01,0,0.01,0.02,0,0.02c-0.52,0.06-1.58,0.52-1.97,1.58
		c-0.17,0.46-0.22,1.05-0.02,1.76c0,0.01,0.02,0.01,0.02,0c0-0.02,0-0.03,0-0.05c0.01-0.96,0.56-2.24,1.91-2.56
		c0.01,0,0.02,0.01,0.01,0.02c-1.51,1.33-1.36,2.97-0.87,3.94c0.01,0.01,0.02,0.01,0.02-0.01c-0.07-0.73-0.12-2.04,1.09-3.03
		c0.01-0.01,0.02,0,0.02,0.01c-0.28,0.45-0.94,2.22,0.41,3.83c0.01,0.01,0.02,0,0.02-0.01c-0.23-0.55-0.53-2.46,0.55-3.15
		c0.01,0,0.02,0,0.02,0.01c0.11,1.26,0.24,3.69-0.11,7.44c-1.76-1.02-4.83-2.6-7.06-2.6c-0.68,0-1.26,0.18-1.22,0.19
		c2.94,0.46,6.43,2.51,7.89,3.44c-0.95,0.59-3.97,2.46-4.34,2.46c-0.18,0-0.21-0.22-0.37-0.22c-0.14,0-0.14,0.1-0.14,0.14
		c0,0.63,0.86,1.04,1.55,0.71l4.25-2.45l4.24,2.45c0.69,0.33,1.55-0.08,1.55-0.71c0-0.04,0-0.14-0.14-0.14
		c-0.16,0-0.18,0.22-0.37,0.22c-0.36,0-3.39-1.87-4.34-2.46c1.47-0.93,4.95-2.98,7.89-3.44C226.01,57.73,225.44,57.54,224.75,57.54"
		/>
	<path style="clip-path:url(#SVGID_00000118364429032739558360000008511217525953989048_);fill:#647378;" d="M234.1,55.33
		c1.42,0.12,4.42,0.49,5.33-0.17c0.05,0.26-0.92,1.21-3.92,1.01c-2.52-0.17-5.8-0.54-6.71,0.22
		C229.05,55.31,231.17,55.08,234.1,55.33"/>
	<polygon style="clip-path:url(#SVGID_00000118364429032739558360000008511217525953989048_);fill:#647378;" points="188.14,66.21 
		188.46,66.84 196.33,62.83 	"/>
	<polygon style="clip-path:url(#SVGID_00000118364429032739558360000008511217525953989048_);fill:#647378;" points="243.68,63 
		242.62,63.02 244.16,63.72 244.62,62.98 244.09,62.99 	"/>
	<path style="clip-path:url(#SVGID_00000118364429032739558360000008511217525953989048_);fill:#647378;" d="M242.38,67.23
		l-7.36-3.83c-1.01-0.53-2.16-0.73-3.29-0.57l3.45,4.85l5.41,3.06l-0.34,0.81l2.65,1.35l0.79-1.56
		C244.46,69.84,243.87,68.01,242.38,67.23"/>
	<path style="clip-path:url(#SVGID_00000118364429032739558360000008511217525953989048_);fill:#647378;" d="M226.31,73.65
		c-0.14-0.28-0.3-0.56-0.49-0.84c0.34,2.73-1.42,3.98-1.42,3.98l1.16-0.8c0,0-0.95,2.63-3.07,3.64c-2.12,1-5.36,2.08-5.36,2.42
		c0-0.34-3.42-1.41-5.53-2.42c-2.12-1-3.07-3.64-3.07-3.64l1.73,0.72l0.62-0.12c-0.68-0.42-1.35-1.12-1.82-1.94
		c-0.11-0.19-0.2-0.38-0.29-0.58c-0.17-0.41-0.29-0.83-0.34-1.27c-0.19,0.28-0.35,0.56-0.49,0.84c-0.06,0.12-0.11,0.25-0.16,0.37
		c-0.55,1.37-0.48,2.75,0.2,4.18l0.47-0.66c1.29,3.76,6.71,3.57,8.67,6.28v0l0,0c1.95-2.7,7.38-2.52,8.67-6.28l0.47,0.66
		c0.69-1.43,0.76-2.82,0.2-4.18C226.42,73.89,226.37,73.77,226.31,73.65"/>
	<path style="clip-path:url(#SVGID_00000118364429032739558360000008511217525953989048_);fill:#647378;" d="M241.63,41.74"/>
	<path style="clip-path:url(#SVGID_00000118364429032739558360000008511217525953989048_);fill:#647378;" d="M200.15,55.33
		c-1.42,0.12-4.42,0.49-5.33-0.17c-0.05,0.26,0.92,1.21,3.92,1.01c2.52-0.17,5.8-0.54,6.71,0.22
		C205.21,55.31,203.09,55.08,200.15,55.33"/>
	<path style="clip-path:url(#SVGID_00000118364429032739558360000008511217525953989048_);fill:#647378;" d="M203.36,54.29
		c-0.09-0.15-0.19-0.29-0.3-0.41c-1.47-1.65-4.31-0.72-7.28-0.45c-2.57,0.23-3.57,0.03-4.39-0.33c-0.54-0.23-0.58-0.33-0.58-0.33
		s-0.01,0.02-0.01,0.04c0,0.38,1.29,1.75,5.05,1.48C199.25,54.05,201.94,53.41,203.36,54.29"/>
	<path style="clip-path:url(#SVGID_00000118364429032739558360000008511217525953989048_);fill:#647378;" d="M230.9,54.29
		c0.09-0.15,0.19-0.29,0.3-0.41c1.47-1.65,4.31-0.72,7.27-0.45c2.57,0.23,3.57,0.03,4.39-0.33c0.54-0.23,0.58-0.33,0.58-0.33
		s0.01,0.02,0.01,0.04c0,0.38-1.29,1.75-5.05,1.48C235,54.05,232.32,53.41,230.9,54.29"/>
	<polygon style="clip-path:url(#SVGID_00000118364429032739558360000008511217525953989048_);fill:#B2BEC4;" points="239.11,69.9 
		240.59,70.73 240.25,71.54 	"/>
	<path style="clip-path:url(#SVGID_00000118364429032739558360000008511217525953989048_);fill:#B2BEC4;" d="M204.89,47.05
		l-3.27-1.67l-0.36-0.18l-0.68-0.34l0.09-0.16c0.11-0.22,0.03-0.49-0.19-0.61l-2.05-1.14l-0.35-0.2l-3.18-1.77l-0.35-0.2l-2.18-1.21
		l-0.47,0.92l-0.86,1.68l-0.45,0.89l0.54,0.27l0.03-0.06c0.45-0.89,1.54-1.25,2.44-0.8l6.53,3.3l-0.42,0.82l0.34-0.08
		c0.66-0.15,1.35-0.07,1.96,0.23l6.39,3.22c0.24-0.25,0.5-0.49,0.76-0.71l-3.9-1.99L204.89,47.05z"/>
	<path style="clip-path:url(#SVGID_00000118364429032739558360000008511217525953989048_);fill:#B2BEC4;" d="M224.4,76.79
		c0,0,1.75-1.25,1.42-3.98c-0.05,0.43-0.17,0.86-0.34,1.27c-0.08,0.2-0.18,0.39-0.29,0.58c-0.47,0.82-1.14,1.52-1.82,1.94
		L224.4,76.79z"/>
	<path style="clip-path:url(#SVGID_00000118364429032739558360000008511217525953989048_);fill:#B2BEC4;" d="M220.55,79.31
		c-0.21,0-0.42-0.02-0.61-0.06c-1.06,0.32-1.76,0.64-2.2,0.88c-0.44,0.24-0.61,0.4-0.61,0.4V67.31c-0.38,0-0.75-0.02-1.11-0.05v9.61
		c0,0.77-0.21,1.38-0.62,1.81c-1.3,1.34-4.45,0.45-5.54-1.89l0.41-0.08l-1.74-0.72c0,0,0.95,2.64,3.07,3.64
		c2.12,1,5.53,2.07,5.53,2.42c0-0.34,3.24-1.41,5.36-2.42c2.12-1,3.07-3.64,3.07-3.64l-1.16,0.8
		C223.66,78.39,221.96,79.31,220.55,79.31"/>
	<polygon style="clip-path:url(#SVGID_00000118364429032739558360000008511217525953989048_);fill:#B2BEC4;" points="215.42,46.17 
		215.42,40.9 215.42,46.17 	"/>
	<path style="clip-path:url(#SVGID_00000118364429032739558360000008511217525953989048_);fill:#B2BEC4;" d="M218.41,32.81
		c-0.26,0.06-0.66,0.12-1.28,0.17c-0.39,0.02-0.8,0.03-1.39,0.03c0,0,0.01,0.09,0.12,0.2c0.04,0.04,0.09,0.08,0.15,0.12
		c0.16,0.1,0.4,0.19,0.79,0.25c0.1,0.01,0.21,0.03,0.32,0.04v12.77c-1.06,0-2.09,0.13-3.08,0.37v-4.63c0-0.29,0.16-0.55,0.42-0.68
		l0.65-0.37c-0.32,0.18-0.49,0.55-0.43,0.92l0.04,0.22l0.68,3.98V33.72c0-1.19,0.22-2.37,0.64-3.48l1.07-2.99v4.47
		C217.13,32.37,217.2,32.75,218.41,32.81"/>
	<polygon style="clip-path:url(#SVGID_00000118364429032739558360000008511217525953989048_);fill:#B2BEC4;" points="197.94,66 
		190.08,70.01 190.4,70.64 	"/>
	<path style="clip-path:url(#SVGID_00000118364429032739558360000008511217525953989048_);fill:#B2BEC4;" d="M241.63,41.74"/>
	<path style="clip-path:url(#SVGID_00000118364429032739558360000008511217525953989048_);fill:#B2BEC4;" d="M243.45,52.78"/>
	<path style="clip-path:url(#SVGID_00000118364429032739558360000008511217525953989048_);fill:#B2BEC4;" d="M239.58,79.1"/>
	<path style="clip-path:url(#SVGID_00000118364429032739558360000008511217525953989048_);fill:#B2BEC4;" d="M190.81,52.78"/>
	<path style="clip-path:url(#SVGID_00000118364429032739558360000008511217525953989048_);fill:#B2BEC4;" d="M198.23,56.95
		c0,0-0.01-0.01-0.01-0.01C198.22,56.94,198.23,56.95,198.23,56.95"/>
	<path style="clip-path:url(#SVGID_00000118364429032739558360000008511217525953989048_);fill:#B2BEC4;" d="M205.45,56.39
		L205.45,56.39c-1.44-0.42-6.29,0.69-7.23,0.55c0,0,0.01,0.01,0.01,0.01c0.22,0.26,1.97,0.24,4.02,0.17
		c0.65-0.02,2.01-0.16,3.28,0.29C205.48,56.56,205.45,56.39,205.45,56.39"/>
	<path style="clip-path:url(#SVGID_00000118364429032739558360000008511217525953989048_);fill:#B2BEC4;" d="M205.43,56.3
		c-0.18-0.64-0.77-1.42-1.82-1.92c-0.08-0.04-0.16-0.07-0.24-0.1c-1.16-0.42-2.3,0.09-6.09,0.73c-0.71,0.12-2.12,0.21-2.45,0.14
		c0,0,0,0,0,0c0.92,0.66,3.91,0.29,5.33,0.17c2.93-0.24,5.06-0.02,5.3,1.06C205.44,56.36,205.44,56.33,205.43,56.3"/>
	<path style="clip-path:url(#SVGID_00000118364429032739558360000008511217525953989048_);fill:#B2BEC4;" d="M203.26,54.13
		c-0.56-0.86-1.1-1.38-1.68-1.67c-1.22-0.62-2.6-0.26-4.6-0.01c-2.71,0.33-5.22,0.7-6.17,0.33c0,0,0.04,0.09,0.58,0.33
		c0.82,0.36,1.83,0.56,4.39,0.33c2.97-0.27,5.8-1.2,7.27,0.45c0.11,0.12,0.21,0.26,0.3,0.41C203.33,54.23,203.3,54.18,203.26,54.13"
		/>
	<path style="clip-path:url(#SVGID_00000118364429032739558360000008511217525953989048_);fill:#B2BEC4;" d="M236.03,56.95
		c0,0,0.01-0.01,0.01-0.01C236.03,56.94,236.03,56.95,236.03,56.95"/>
	<path style="clip-path:url(#SVGID_00000118364429032739558360000008511217525953989048_);fill:#B2BEC4;" d="M228.81,56.39
		L228.81,56.39c1.44-0.42,6.29,0.69,7.23,0.55c0,0-0.01,0.01-0.01,0.01c-0.22,0.26-1.97,0.24-4.02,0.17
		c-0.65-0.02-2.01-0.16-3.28,0.29C228.78,56.56,228.81,56.39,228.81,56.39"/>
	<path style="clip-path:url(#SVGID_00000118364429032739558360000008511217525953989048_);fill:#B2BEC4;" d="M228.83,56.3
		c0.17-0.64,0.77-1.42,1.82-1.92c0.08-0.04,0.16-0.07,0.24-0.1c1.16-0.42,2.3,0.09,6.09,0.73c0.71,0.12,2.12,0.21,2.45,0.14
		c0,0,0,0,0,0c-0.92,0.66-3.91,0.29-5.33,0.17c-2.93-0.24-5.06-0.02-5.3,1.06C228.81,56.36,228.82,56.33,228.83,56.3"/>
	<path style="clip-path:url(#SVGID_00000118364429032739558360000008511217525953989048_);fill:#B2BEC4;" d="M231,54.13
		c0.55-0.86,1.1-1.38,1.68-1.67c1.22-0.62,2.6-0.26,4.6-0.01c2.71,0.33,5.22,0.7,6.17,0.33c0,0-0.04,0.09-0.58,0.33
		c-0.82,0.36-1.83,0.56-4.39,0.33c-2.97-0.27-5.8-1.2-7.27,0.45c-0.11,0.12-0.21,0.26-0.3,0.41C230.93,54.23,230.96,54.18,231,54.13
		"/>
	<path style="clip-path:url(#SVGID_00000118364429032739558360000008511217525953989048_);fill:#B2BEC4;" d="M194.68,79.1"/>
	<path style="clip-path:url(#SVGID_00000118364429032739558360000008511217525953989048_);fill:#B2BEC4;" d="M201.85,60.01
		l-0.74,0.38l-2.79,0.42l-0.4,0.06l-3.58,0.54l-0.4,0.06l-0.35,0.05c-1.07,0.22-2.12,0.52-3.15,0.89c-0.13,0.05-0.25,0.09-0.38,0.14
		c-0.8,0.3-1.59,0.65-2.35,1.04l-0.72,0.37l1.15,2.25l8.19-3.38l-7.87,4.01l-0.81,0.41l-0.36,0.18c0.4,1.12,0.87,2.22,1.39,3.28
		c-0.46-0.9-0.1-1.99,0.8-2.45L206,59.85c-0.18-0.53-0.31-1.07-0.39-1.63c-0.05-0.02-0.1-0.03-0.15-0.05l-3.24,1.65L201.85,60.01z"
		/>
	<path style="clip-path:url(#SVGID_00000118364429032739558360000008511217525953989048_);fill:#B2BEC4;" d="M202.74,50.67
		c-1-0.59-2.12-0.92-3.48-1.05c-0.14-0.01-0.28-0.02-0.42-0.03v0c-0.3-0.02-0.62-0.03-0.94-0.03c-0.89-0.01-1.87,0.05-2.92,0.11
		c-0.14,0.01-0.29,0.02-0.43,0.03c-0.55,0.04-1.09,0.07-1.62,0.1c-0.74,0.04-1.49,0.08-2.19,0.09c-0.14,0-0.28,0-0.42,0l-0.47,0
		c-0.9-0.01-2.29-0.26-3.13-0.51c-0.15-0.04-0.28-0.09-0.38-0.13c-0.09-0.04-0.16-0.07-0.21-0.1c-0.02-0.01-0.03-0.02-0.05-0.03
		c0,0,0.08,0.09,0.09,0.09c2.36,2.5,5.85,1.61,12.59,1.35c3.17-0.12,5.24,2.21,6.86,4.9c0.06-0.43,0.16-0.85,0.27-1.25v0
		c-0.39-0.76-0.94-1.68-1.55-2.27c-0.4-0.4-0.81-0.75-1.24-1.04C202.97,50.81,202.86,50.74,202.74,50.67"/>
	<path style="clip-path:url(#SVGID_00000118364429032739558360000008511217525953989048_);fill:#B2BEC4;" d="M231.17,50.89
		c0.11-0.08,0.23-0.15,0.34-0.22c1.01-0.6,2.12-0.92,3.48-1.05c0.14-0.01,0.28-0.02,0.42-0.03c0.3-0.02,0.62-0.03,0.95-0.03
		c0.89-0.01,1.87,0.05,2.92,0.11c0.14,0.01,0.29,0.02,0.43,0.03c0.55,0.04,1.09,0.07,1.62,0.1c0.74,0.04,1.49,0.08,2.19,0.09
		c0.14,0,0.28,0,0.42,0l0.47,0c0.9-0.01,2.29-0.26,3.13-0.51c0.15-0.04,0.27-0.09,0.38-0.13c0.09-0.04,0.16-0.07,0.21-0.1
		c0.02-0.01,0.03-0.02,0.05-0.03c0,0-0.08,0.09-0.09,0.09c-2.36,2.5-5.85,1.61-12.59,1.35c-3.17-0.12-5.24,2.21-6.86,4.9
		c-0.06-0.43-0.16-0.85-0.27-1.25c0.39-0.76,0.94-1.68,1.55-2.28C230.33,51.52,230.74,51.18,231.17,50.89"/>
	<path style="clip-path:url(#SVGID_00000118364429032739558360000008511217525953989048_);fill:#96853B;" d="M217.13,15.67
		c-0.03,0.21-0.15,0.39-0.32,0.59c-0.17,0.2-0.39,0.43-0.63,0.73c-1.23,0.6-4.68,0.21-4.68,3.65c0,0.94,0.44,1.84,1.21,2.41
		c-0.96-0.21-1.85-0.91-2.17-2.35c-0.29-1.53,0.58-2.95,1.96-3.64c1.31-0.66,3.91-0.6,4.5-1.39
		C217.05,15.67,217.09,15.67,217.13,15.67"/>
	<path style="clip-path:url(#SVGID_00000118364429032739558360000008511217525953989048_);fill:#96853B;" d="M210.28,18.27
		c-0.07,0.12-0.14,0.24-0.2,0.37c-0.01,0.02-0.02,0.04-0.03,0.06c-1.12,0.27-1.96,1.27-1.96,2.48c0,0.48,0.1,0.95,0.37,1.31
		c0.05,0.07,0.1,0.13,0.16,0.19l0,0l0,0c-1.19-1.17-1.09-2.63-0.25-3.85c0.48-0.7,1.21-1.32,2.06-1.76c0.01,0,0.01-0.01,0.02-0.01
		C210.33,17.41,210.25,17.86,210.28,18.27"/>
	<path style="clip-path:url(#SVGID_00000118364429032739558360000008511217525953989048_);fill:#96853B;" d="M209.41,23.9
		L209.41,23.9L209.41,23.9c1.05,0.61,1.92,1.88,2.06,3.12c1.85-0.72,3.16-1.15,5.66-1.15C214.55,23.43,210.78,23.94,209.41,23.9"/>
	<path style="clip-path:url(#SVGID_00000118364429032739558360000008511217525953989048_);fill:#96853B;" d="M217.13,15.67
		c0.03,0.21,0.15,0.39,0.32,0.59c0.17,0.2,0.39,0.43,0.63,0.73c1.23,0.6,4.68,0.21,4.68,3.65c0,0.94-0.44,1.84-1.21,2.41
		c0.96-0.21,1.85-0.91,2.17-2.35c0.29-1.53-0.58-2.95-1.96-3.64c-1.32-0.66-3.91-0.6-4.5-1.39
		C217.21,15.67,217.17,15.67,217.13,15.67"/>
	<path style="clip-path:url(#SVGID_00000118364429032739558360000008511217525953989048_);fill:#96853B;" d="M223.98,18.27
		c0.07,0.12,0.13,0.24,0.2,0.37c0.01,0.02,0.02,0.04,0.03,0.06c1.12,0.27,1.96,1.27,1.96,2.48c0,0.48-0.1,0.95-0.37,1.31
		c-0.05,0.07-0.1,0.13-0.16,0.19l0,0l0,0c1.19-1.17,1.08-2.63,0.25-3.85c-0.48-0.7-1.21-1.32-2.06-1.76c-0.01,0-0.01-0.01-0.02-0.01
		C223.93,17.41,224.01,17.86,223.98,18.27"/>
	<path style="clip-path:url(#SVGID_00000118364429032739558360000008511217525953989048_);fill:#D5BA78;" d="M223.81,17.08
		c0.01,0,0.01,0.01,0.02,0.01c0.85,0.43,1.58,1.05,2.06,1.76c0.84,1.22,0.94,2.68-0.25,3.85l0,0l0,0h0
		c-0.91,1.02-2.26,0.81-2.65,0.72c-0.07-0.02-0.1-0.03-0.11-0.03c0.25,0.06,1.73-1,1.73-2.75c0-0.37-0.04-0.73-0.12-1.06
		s-0.17-0.63-0.28-0.87c-0.01-0.02-0.02-0.04-0.03-0.06c-0.07-0.13-0.13-0.26-0.2-0.37c-1.7-2.96-4.38-2.01-5.8-3.2
		c-0.1,0.16-0.23,0.3-0.39,0.4c-0.16,0.1-0.34,0.17-0.54,0.19c0.59,0.8,3.18,0.74,4.5,1.39c1.38,0.69,2.25,2.11,1.96,3.64
		c-0.31,1.44-1.21,2.14-2.17,2.35c-0.72-0.16-1.22-0.28-1.74-0.38c-0.53-0.09-1.08-0.15-1.89-0.18c0.23-0.48,0.4-0.99,0.51-1.53
		c0.1-0.46,0.15-0.93,0.15-1.42c0-0.87-0.16-1.72-0.49-2.56c-0.47-0.59-0.89-0.91-0.95-1.32v0v0c-0.06,0.41-0.48,0.73-0.95,1.32
		c-0.34,0.84-0.49,1.7-0.49,2.56c0,0.49,0.06,0.96,0.15,1.42c0.11,0.54,0.28,1.05,0.51,1.53c-0.82,0.02-1.37,0.08-1.89,0.18
		c-0.53,0.09-1.03,0.22-1.74,0.38c-0.96-0.21-1.85-0.92-2.16-2.35c-0.29-1.53,0.58-2.95,1.96-3.64c1.32-0.66,3.91-0.6,4.5-1.39
		c-0.2-0.02-0.38-0.09-0.53-0.19c-0.16-0.1-0.29-0.24-0.39-0.4c-1.42,1.19-4.1,0.24-5.81,3.2c-0.07,0.12-0.14,0.24-0.2,0.37
		c-0.01,0.02-0.02,0.04-0.03,0.06h0c-0.11,0.24-0.21,0.54-0.28,0.87c-0.07,0.33-0.12,0.69-0.12,1.06c0,1.75,1.48,2.81,1.73,2.75
		c-0.01,0-0.03,0.01-0.11,0.03c-0.4,0.09-1.74,0.3-2.65-0.72h0v0c0,0,0,0,0,0c-1.19-1.17-1.08-2.63-0.25-3.85
		c0.48-0.7,1.21-1.32,2.06-1.76c0,0,0.01-0.01,0.02-0.01c-2.18,0.1-3.93,1.9-3.93,4.11c0,0.69,0.17,1.33,0.47,1.9
		c0.05,0.1,0.11,0.19,0.17,0.29c0.08,0,0.15-0.01,0.23-0.01c0.74,0,1.43,0.19,2.03,0.54c0,0,0,0,0,0c1.37,0.04,5.14-0.47,7.72,1.97
		h0c2.58-2.43,6.35-1.93,7.72-1.97c0,0,0,0,0,0c0.6-0.35,1.29-0.54,2.03-0.54c0.08,0,0.15,0.01,0.23,0.01
		c0.06-0.09,0.11-0.19,0.16-0.29c0.3-0.57,0.47-1.22,0.47-1.9C227.74,18.98,226,17.18,223.81,17.08"/>
	<path style="clip-path:url(#SVGID_00000118364429032739558360000008511217525953989048_);fill:#96853B;" d="M224.85,23.9
		L224.85,23.9L224.85,23.9c-1.05,0.61-1.92,1.88-2.06,3.12c-1.85-0.72-3.16-1.15-5.66-1.15C219.71,23.43,223.48,23.94,224.85,23.9"
		/>
	<path style="clip-path:url(#SVGID_00000118364429032739558360000008511217525953989048_);fill:#647378;" d="M248.18,49.11
		c0,0-0.08,0.09-0.09,0.09c-2.36,2.5-5.85,1.61-12.59,1.35c-3.17-0.12-5.24,2.21-6.86,4.9c-0.06-0.43-0.16-0.85-0.27-1.25
		c-0.12-0.43-0.28-0.85-0.46-1.26c-0.07-0.16-0.14-0.31-0.22-0.46c0-0.01,0-0.01-0.01-0.01c0-0.01-0.01-0.02-0.01-0.03
		c-0.22-0.42-0.46-0.82-0.73-1.2l10.11-5.15c1.99-1.01,3.54-2.54,4.59-4.33c-0.01,0-2.94,1.48-2.95,1.49
		c-0.05,0.03-1.37,0.75-1.01,1.8c0,0-1.14-1.3-1.24-2.19c0,0-0.05,0.73,0.03,1.51l-10.75,5.45c-0.47-0.47-0.98-0.87-1.48-1.21
		l3.49-4.49l-0.17-1.42l7.9-10.19l-0.34-0.27l-7.29,9.39l-4.8,6.23c-0.01-0.01-0.03-0.02-0.04-0.02h0
		c-1.02-0.54-1.86-0.85-2.78-1.08v-4.63c0-0.29-0.16-0.55-0.42-0.68c0,0-0.94-0.53-0.94-0.53v-7.18c0-1.19-0.22-2.37-0.64-3.48
		l-1.07-2.99v4.47c0,0.65,0.07,1.03,1.28,1.09c-0.26,0.06-0.66,0.12-1.28,0.17c-0.39,0.02-0.8,0.03-1.39,0.03
		c0,0,0.02,0.16,0.27,0.32c0.16,0.1,0.4,0.19,0.79,0.25c0.1,0.01,0.21,0.03,0.32,0.04v12.77c-1.06,0-2.09,0.13-3.08,0.37
		c-0.98,0.24-2.14,0.71-2.83,1.09l-12.08-15.6l-0.35,0.26l7.9,10.19l-0.17,1.42l3.49,4.48c-0.31,0.21-0.59,0.43-0.85,0.64
		c-0.27,0.23-0.52,0.46-0.76,0.71l-6.39-3.22c-0.61-0.3-1.3-0.39-1.96-0.23l-0.34,0.08l0.42-0.82l-6.53-3.3
		c-0.89-0.45-1.98-0.09-2.44,0.8l-0.03,0.06l7.89,3.64c0.23,0.1,0.49,0.01,0.61-0.21l0.08-0.17l8.05,4.08
		c-0.85,1.04-1.5,2.25-1.88,3.55c-0.12,0.41-0.21,0.83-0.27,1.25c-1.62-2.68-3.69-5.02-6.86-4.9c-6.74,0.26-10.23,1.15-12.59-1.35
		c0,0-0.09-0.09-0.09-0.09c-0.06,0.18,0.15,0.57,0.27,0.74c0.61,0.91,2.34,2.24,6.04,2.04c3.77-0.2,5.71-0.34,6.98-0.22
		c0.86,0.08,1.59,0.35,2.22,0.78c0.58,0.29,1.13,0.81,1.68,1.67c0.03,0.05,0.07,0.11,0.1,0.16c0.08,0.03,0.16,0.06,0.24,0.1
		c1.06,0.49,1.65,1.28,1.82,1.92c0.01,0.03,0.02,0.05,0.02,0.08v0c0,0.01,0.03,0.17,0.08,1.03c-1.27-0.44-2.63-0.31-3.28-0.29
		c-2.05,0.06-3.8,0.09-4.01-0.17c0.2,0.28,1.41,0.83,3.46,0.79c0.92-0.02,2.42,0.01,3.77,0.43c0.05,0.02,0.1,0.03,0.15,0.05
		c0.08,0.56,0.21,1.1,0.39,1.63l-16.52,8.41c-0.9,0.46-1.25,1.55-0.8,2.45l1.39-0.7l7.87-4.01l-7.55,4.64l1.14,2.25l0.72-0.37
		c1.86-0.95,3.59-2.14,5.13-3.55l5.4-5.45l3.93-2.01c0,0,0,0,0,0.01c0.3,0.55,0.66,1.07,1.07,1.56c1.31,1.59,3.1,2.82,5.16,3.53
		c0.97,0.34,1.99,0.56,3.05,0.65c0.37,0.03,0.74,0.05,1.11,0.05v13.22c0,0,0.68-0.64,2.8-1.29c-0.42-0.09-0.79-0.27-1.07-0.57
		c-0.42-0.43-0.62-1.03-0.62-1.81v-9.61c1.06-0.09,2.09-0.31,3.05-0.65c2.05-0.71,3.85-1.94,5.16-3.53c0.32-0.39,0.61-0.8,0.87-1.23
		h0c0.2-0.32,0.38-0.66,0.53-1l0,0l3.87,1.97c-0.49-1.01-1.3-1.79-2.22-2.25l-1.28-0.64c0.21-0.61,0.34-1.15,0.42-1.71
		c0.05-0.02,0.1-0.03,0.15-0.05c1.36-0.42,2.85-0.45,3.77-0.43c2.05,0.04,3.26-0.51,3.46-0.79l0,0c-0.21,0.26-1.97,0.24-4.01,0.17
		c-0.65-0.02-2.01-0.16-3.28,0.29c0.05-0.85,0.08-1.02,0.08-1.03v0c0.01-0.03,0.01-0.05,0.02-0.08c0.17-0.64,0.77-1.42,1.82-1.92
		c0.08-0.04,0.16-0.07,0.24-0.1c0.03-0.05,0.07-0.11,0.1-0.16c0.55-0.86,1.1-1.38,1.68-1.67c0.63-0.42,1.35-0.7,2.22-0.78
		c1.26-0.12,3.2,0.02,6.98,0.22c3.71,0.2,5.43-1.14,6.04-2.04C248.04,49.67,248.25,49.29,248.18,49.11 M217.13,67.09
		c-5.66,0-10.26-4.59-10.26-10.26s4.59-10.26,10.26-10.26c5.66,0,10.26,4.59,10.26,10.26S222.79,67.09,217.13,67.09"/>
	<path style="clip-path:url(#SVGID_00000118364429032739558360000008511217525953989048_);fill:#B2BEC4;" d="M244.62,62.98
		l-0.46,0.75l-1.54-0.7l-2.4-1.1l-0.37-0.17l-1.34-0.61l-2.24,0.02l-0.41,0l-3.2,0.03l-0.48-0.25l-0.37-0.19l-3.32-1.7
		c-0.07,0.28-0.15,0.56-0.25,0.86l1.28,0.64c0.91,0.46,1.71,1.23,2.2,2.23c0.01,0.01,0.01,0.02,0.01,0.03
		c1.13-0.16,2.28,0.04,3.29,0.57l7.36,3.83c1.49,0.78,2.08,2.61,1.31,4.11l-0.79,1.55l4.36-8.56L244.62,62.98z"/>
	<path style="clip-path:url(#SVGID_00000118364429032739558360000008511217525953989048_);fill:#B2BEC4;" d="M222.99,47.82
		L222.99,47.82c0.02,0.01,0.03,0.02,0.04,0.02l4.8-6.23l7.3-9.39l-0.61-0.48l-6.08,7.81l-5.12,6.61l4.39-7.18l-4.51,5.5l-0.69,0.02
		l-1.92,2.33C221.36,47.06,222.11,47.36,222.99,47.82"/>
	<path style="clip-path:url(#SVGID_00000118364429032739558360000008511217525953989048_);fill:#647378;" d="M227.7,38.99
		L227.7,38.99l-0.6-0.48c-0.15-0.11-0.28-0.2-0.43-0.24c-0.44-0.11-0.8,0.24-0.9,1.06l-0.37,2.44L227.7,38.99z"/>
	<path style="clip-path:url(#SVGID_00000118364429032739558360000008511217525953989048_);fill:#959FA4;" d="M225.78,39.34
		c0.01-0.07,0.02-0.14,0.03-0.2c-2.04-1.01-4.28-1.68-6.64-1.92v0.4c2.34,0.25,4.56,0.92,6.58,1.93L225.78,39.34z"/>
	<polygon style="clip-path:url(#SVGID_00000118364429032739558360000008511217525953989048_);fill:#647378;" points="228.42,39.57 
		227.71,38.99 223.31,46.17 	"/>
	<path style="clip-path:url(#SVGID_00000118364429032739558360000008511217525953989048_);fill:#B2BEC4;" d="M199.14,32.24
		l12.08,15.6c0.6-0.34,1.57-0.73,2.46-0.99l-1.92-2.33l-0.69-0.02l-4.51-5.5l-0.73,0.57l-6.08-7.81L199.14,32.24z"/>
	<path style="clip-path:url(#SVGID_00000118364429032739558360000008511217525953989048_);fill:#647378;" d="M208.85,41.79
		l-0.37-2.44c-0.1-0.82-0.46-1.17-0.9-1.06c-0.15,0.04-0.28,0.13-0.43,0.24l-0.6,0.47L208.85,41.79z"/>
	<path style="clip-path:url(#SVGID_00000118364429032739558360000008511217525953989048_);fill:#959FA4;" d="M208.45,39.14
		c0.01,0.07,0.03,0.13,0.03,0.2l0.03,0.21c2.02-1.01,4.23-1.69,6.58-1.93v-0.4C212.73,37.46,210.49,38.13,208.45,39.14"/>
	<polygon style="clip-path:url(#SVGID_00000118364429032739558360000008511217525953989048_);fill:#647378;" points="210.95,46.17 
		206.55,38.99 205.83,39.56 	"/>
	<path style="clip-path:url(#SVGID_00000118364429032739558360000008511217525953989048_);fill:#B2BEC4;" d="M232.42,44.44
		l-0.37,0.19l-3.31,1.69l-0.37,0.19l-4.11,2.1c0.49,0.34,1,0.74,1.47,1.2l10.75-5.45c-0.08-0.78-0.03-1.51-0.03-1.51
		c0.01,0.11,0.04,0.23,0.08,0.35c0.08,0.24,0.21,0.5,0.35,0.74c0.07,0.12,0.15,0.24,0.22,0.34c0.3,0.44,0.58,0.76,0.58,0.76
		c-0.05-0.13-0.07-0.26-0.06-0.38c0.01-0.54,0.43-0.96,0.74-1.2c0.1-0.08,0.2-0.14,0.26-0.18c0.1-0.06-0.2,0.1,3.02-1.53
		c-0.45-0.05-0.9-0.06-1.3-0.06v0c-0.16,0-0.31,0.01-0.47,0.02c-1.28,0.07-2.56,0.37-3.79,0.9c-0.13,0.05-0.25,0.11-0.38,0.17h0
		c-0.09,0.04-0.18,0.09-0.27,0.13L232.42,44.44z"/>
	<path style="clip-path:url(#SVGID_00000118364429032739558360000008511217525953989048_);fill:#959FA4;" d="M229.6,66.14
		c0.68-0.9,1.27-1.88,1.74-2.91l-0.36-0.18c-0.45,0.99-1.01,1.91-1.65,2.77L229.6,66.14z"/>
	<path style="clip-path:url(#SVGID_00000118364429032739558360000008511217525953989048_);fill:#959FA4;" d="M231.83,69.75
		c0.82-0.93,1.57-1.94,2.2-3.01l-0.26-0.36c-0.63,1.09-1.37,2.11-2.2,3.06L231.83,69.75z"/>
	<path style="clip-path:url(#SVGID_00000118364429032739558360000008511217525953989048_);fill:#959FA4;" d="M234.4,72.88
		c1.02-1.09,1.94-2.27,2.74-3.54l-0.35-0.2c-0.78,1.23-1.67,2.37-2.65,3.43L234.4,72.88z"/>
	<path style="clip-path:url(#SVGID_00000118364429032739558360000008511217525953989048_);fill:#959FA4;" d="M236.97,76.01
		c1.17-1.21,2.24-2.53,3.18-3.93l-0.25-0.35c-0.94,1.42-2.01,2.75-3.19,3.98L236.97,76.01z"/>
	<path style="clip-path:url(#SVGID_00000118364429032739558360000008511217525953989048_);fill:#959FA4;" d="M197.54,75.7
		c-1.15-1.19-2.2-2.48-3.12-3.86c-0.11,0.07-0.23,0.14-0.34,0.21h0c0.95,1.42,2.02,2.74,3.2,3.96L197.54,75.7z"/>
	<path style="clip-path:url(#SVGID_00000118364429032739558360000008511217525953989048_);fill:#959FA4;" d="M200.11,72.57
		c-0.92-0.99-1.77-2.06-2.51-3.2c0,0-0.26,0.24-0.3,0.27c0.75,1.15,1.61,2.24,2.55,3.24L200.11,72.57z"/>
	<path style="clip-path:url(#SVGID_00000118364429032739558360000008511217525953989048_);fill:#959FA4;" d="M202.69,69.43
		c-0.81-0.93-1.55-1.92-2.17-3l-0.29,0.29c0.64,1.08,1.38,2.08,2.21,3.02L202.69,69.43z"/>
	<path style="clip-path:url(#SVGID_00000118364429032739558360000008511217525953989048_);fill:#959FA4;" d="M204.93,65.82
		c-0.5-0.67-0.96-1.39-1.34-2.14l-0.36,0.18c0.41,0.8,0.9,1.57,1.44,2.28L204.93,65.82z"/>
	<path style="clip-path:url(#SVGID_00000118364429032739558360000008511217525953989048_);fill:#959FA4;" d="M201.71,33.78
		c-0.09,0.06-0.17,0.11-0.25,0.17l0.25,0.32c0.09-0.06,0.17-0.12,0.26-0.18c4.04-2.71,8.86-4.36,14.03-4.57l0.15-0.41
		C210.82,29.29,205.87,30.98,201.71,33.78"/>
	<path style="clip-path:url(#SVGID_00000118364429032739558360000008511217525953989048_);fill:#959FA4;" d="M210.07,43.27
		c0.12-0.06,0.24-0.13,0.37-0.19c1.04-0.51,2.15-0.91,3.31-1.18c0.03-0.17,0.1-0.32,0.2-0.45c-1.33,0.27-2.6,0.72-3.78,1.31
		c-0.12,0.06-0.24,0.13-0.36,0.19L210.07,43.27z"/>
	<path style="clip-path:url(#SVGID_00000118364429032739558360000008511217525953989048_);fill:#959FA4;" d="M223.82,43.09
		c0.12,0.06,0.24,0.12,0.37,0.19l0.26-0.32c-0.12-0.07-0.24-0.13-0.37-0.19c-1.18-0.59-2.45-1.04-3.78-1.31
		c0.1,0.13,0.17,0.29,0.2,0.45C221.67,42.17,222.78,42.57,223.82,43.09"/>
	<path style="clip-path:url(#SVGID_00000118364429032739558360000008511217525953989048_);fill:#959FA4;" d="M230.08,37.44
		l0.25-0.32c-0.11-0.08-0.23-0.15-0.35-0.23c-3.18-2.07-6.89-3.38-10.87-3.72c0.01,0.13,0.02,0.27,0.02,0.4
		c3.88,0.33,7.49,1.62,10.59,3.62C229.84,37.29,229.96,37.36,230.08,37.44"/>
	<path style="clip-path:url(#SVGID_00000118364429032739558360000008511217525953989048_);fill:#959FA4;" d="M232.55,34.27
		l0.25-0.32c-0.08-0.06-0.17-0.11-0.25-0.17c-4.15-2.8-9.11-4.48-14.44-4.67l0.15,0.41c5.18,0.21,9.99,1.86,14.04,4.57
		C232.37,34.15,232.46,34.21,232.55,34.27"/>
	<path style="clip-path:url(#SVGID_00000118364429032739558360000008511217525953989048_);fill:#647378;" d="M214.73,42.19
		l0.68,3.98V40.9l-0.28,0.16c-0.32,0.18-0.5,0.55-0.43,0.92L214.73,42.19z"/>
	<path style="clip-path:url(#SVGID_00000118364429032739558360000008511217525953989048_);fill:#647378;" d="M200.92,76.35
		c0,0,0.38,2.06,0.73,3.81c-0.02-0.06-0.05-0.11-0.07-0.17c-0.02-0.05-0.18-0.47-0.56-1.06c-0.31-0.46-0.6-0.85-1.03-1.29h0
		c-1.65-0.23-4.12,0.01-5.14,1.32c-0.06,0.08-0.1,0.17-0.1,0.26c0,0.14,0.07,0.27,0.2,0.35l6.66,3.3c0.07,0.04,0.14,0.06,0.22,0.06
		c0.11,0,0.22-0.04,0.29-0.12c0.09-0.09,0.14-0.23,0.18-0.45c1.55-6.1,4.85-11.18,5.66-12.36c0.13-0.19,0.17-0.23,0.2-0.26
		c0.09-0.09,0.21-0.15,0.35-0.15s0.26,0.06,0.35,0.14c0.09,0.1,0.12,0.17,0.23,0.51c0.01,0.02,1,3.05,1.03,3.17
		c0.05,0.17,0.12,0.29,0.2,0.38c0.1,0.1,0.23,0.15,0.38,0.15c0.17,0,0.36-0.07,0.55-0.21l1.79-1.25c0,0,0.05-0.04,0.07-0.06
		c0.06-0.06,0.09-0.14,0.09-0.23c0-0.08-0.03-0.17-0.09-0.23c-0.06-0.06-0.14-0.09-0.16-0.09l-1.87-0.35c0,0,0,0.01,0,0.01
		c0,0,0,0,0,0c-0.23,0.43-0.52,0.99-0.69,1.49c0.02-0.38,0.13-2.15,0.18-2.81l-1.06-2.72c-0.12-0.3-0.39-0.51-0.71-0.56
		c-0.32-0.05-0.64,0.08-0.83,0.34L200.92,76.35z"/>
	<path style="clip-path:url(#SVGID_00000118364429032739558360000008511217525953989048_);fill:#959FA4;" d="M194.82,79.02
		C194.82,79.02,194.82,79.02,194.82,79.02c0.01-0.01,0.01-0.02,0.01-0.02c0.01-0.01,0.01-0.02,0.02-0.02c0,0,0,0,0,0
		c0.04-0.05,0.08-0.1,0.13-0.15c-2.3-2.3-4.21-4.92-5.71-7.85l-0.36,0.18c1.53,2.98,3.51,5.68,5.86,8.02
		C194.77,79.12,194.79,79.07,194.82,79.02"/>
	<path style="clip-path:url(#SVGID_00000118364429032739558360000008511217525953989048_);fill:#B2BEC4;" d="M194.92,78.89
		c1.06-1.23,3.46-1.45,5.07-1.23h0c0.43,0.44,0.72,0.83,1.03,1.29c0.38,0.58,0.53,1,0.56,1.06c0.02,0.06,0.05,0.11,0.07,0.17
		c-0.35-1.76-0.73-3.82-0.73-3.82l7.02-9.04c0.2-0.25,0.52-0.38,0.84-0.34c0.32,0.05,0.59,0.26,0.71,0.56l1.06,2.72
		c-0.04,0.66-0.15,2.43-0.18,2.81c0.17-0.5,0.46-1.06,0.69-1.49c0,0,0,0,0,0c0,0,0-0.01,0.01-0.01l1.87,0.35
		c0.02,0,0.1,0.03,0.16,0.09c0.03,0.03,0.05,0.07,0.07,0.1c-0.14-0.47-1.86-6.21-1.86-6.21c-1.36-0.71-2.56-1.67-3.5-2.81
		c-0.1-0.13-0.21-0.26-0.3-0.39l-4.48,5.43l0.05,0.84L194.92,78.89z"/>
	<path style="clip-path:url(#SVGID_00000118364429032739558360000008511217525953989048_);fill:#647378;" d="M233.34,76.35
		c0,0-0.38,2.06-0.73,3.81c0.02-0.06,0.05-0.11,0.07-0.17c0.02-0.05,0.18-0.47,0.56-1.06c0.31-0.46,0.6-0.85,1.03-1.29h0
		c1.65-0.23,4.12,0.01,5.14,1.32c0.06,0.08,0.1,0.17,0.1,0.26c0,0.14-0.07,0.27-0.2,0.35l-6.66,3.3c-0.07,0.04-0.14,0.06-0.22,0.06
		c-0.11,0-0.22-0.04-0.29-0.12c-0.09-0.09-0.14-0.23-0.18-0.45c-1.55-6.1-4.85-11.18-5.66-12.36c-0.13-0.19-0.17-0.23-0.2-0.26
		c-0.09-0.09-0.21-0.15-0.35-0.15s-0.26,0.06-0.35,0.14c-0.09,0.1-0.12,0.17-0.23,0.51c-0.01,0.02-1,3.05-1.03,3.17
		c-0.05,0.17-0.12,0.29-0.2,0.38c-0.1,0.1-0.23,0.15-0.38,0.15c-0.17,0-0.36-0.07-0.55-0.21l-1.79-1.25c0,0-0.05-0.04-0.07-0.06
		c-0.06-0.06-0.09-0.14-0.09-0.23c0-0.08,0.03-0.17,0.09-0.23c0.06-0.06,0.14-0.09,0.16-0.09l1.87-0.35c0,0,0,0.01,0,0.01v0
		c0.24,0.43,0.52,0.99,0.69,1.49c-0.02-0.38-0.13-2.15-0.18-2.81l1.06-2.72c0.12-0.3,0.39-0.51,0.7-0.56
		c0.32-0.05,0.64,0.08,0.83,0.34L233.34,76.35z"/>
	<path style="clip-path:url(#SVGID_00000118364429032739558360000008511217525953989048_);fill:#959FA4;" d="M248.82,56.75
		c0-2.24-0.23-4.42-0.68-6.53c-0.08,0.14-0.23,0.34-0.32,0.45c0.39,1.97,0.59,4,0.59,6.08c0,5.28-1.31,10.25-3.63,14.62
		c-1.47,2.77-3.31,5.26-5.51,7.45c0.04,0.05,0.09,0.1,0.13,0.15c0,0,0,0,0,0c0.01,0.01,0.01,0.02,0.02,0.02
		c0.01,0.01,0.01,0.01,0.01,0.02c0,0,0,0,0,0.01c0.03,0.05,0.05,0.1,0.06,0.15c2.24-2.24,4.15-4.8,5.65-7.62v0
		C247.49,67.13,248.82,62.09,248.82,56.75"/>
	<path style="clip-path:url(#SVGID_00000118364429032739558360000008511217525953989048_);fill:#B2BEC4;" d="M239.34,78.89
		c-1.06-1.23-3.46-1.45-5.07-1.23h0c-0.43,0.44-0.72,0.83-1.03,1.29c-0.38,0.58-0.53,1-0.56,1.06c-0.02,0.06-0.05,0.11-0.07,0.17
		c0.35-1.76,0.73-3.82,0.73-3.82l-7.02-9.04c-0.2-0.25-0.52-0.38-0.84-0.34c-0.32,0.05-0.59,0.26-0.7,0.56l-1.06,2.72
		c0.04,0.66,0.15,2.43,0.17,2.81c-0.17-0.5-0.46-1.06-0.69-1.49v0c0,0,0-0.01-0.01-0.01l-1.87,0.35c-0.02,0-0.1,0.03-0.16,0.09
		c-0.03,0.03-0.05,0.07-0.07,0.1c0.14-0.47,1.86-6.21,1.86-6.21c1.36-0.71,2.56-1.67,3.5-2.81c0.1-0.13,0.21-0.26,0.3-0.39
		l4.48,5.43l-0.05,0.84L239.34,78.89z"/>
</g>
</svg>
